<?xml version="1.0" encoding="UTF-8"?><svg xmlns="http://www.w3.org/2000/svg" xmlns:xlink="http://www.w3.org/1999/xlink" contentScriptType="text/ecmascript" width="768" zoomAndPan="magnify" contentStyleType="text/css" viewBox="0 0 768 767.999994" height="767.999994" preserveAspectRatio="xMidYMid meet" version="1.0"><defs><clipPath id="clip-0"><path d="M 58.285156 51 L 343 51 L 343 340 L 58.285156 340 Z M 58.285156 51 " clip-rule="nonzero"/></clipPath><clipPath id="clip-1"><path d="M 426 51 L 710.035156 51 L 710.035156 340 L 426 340 Z M 426 51 " clip-rule="nonzero"/></clipPath><clipPath id="clip-2"><path d="M 58.285156 429 L 342 429 L 342 718 L 58.285156 718 Z M 58.285156 429 " clip-rule="nonzero"/></clipPath><clipPath id="clip-3"><path d="M 426 427 L 710.035156 427 L 710.035156 716 L 426 716 Z M 426 427 " clip-rule="nonzero"/></clipPath></defs><rect x="-76.8" width="921.6" fill="rgb(100%, 100%, 100%)" y="-76.799999" height="921.599993" fill-opacity="1"/><rect x="-76.8" width="921.6" fill="rgb(100%, 100%, 100%)" y="-76.799999" height="921.599993" fill-opacity="1"/><rect x="-76.8" width="921.6" fill="rgb(100%, 100%, 100%)" y="-76.799999" height="921.599993" fill-opacity="1"/><g clip-path="url(#clip-0)"><path stroke-linecap="round" transform="matrix(11.198454, 0, 0, 11.196126, 48.20714, 48.770444)" fill="none" stroke-linejoin="round" d="M 4.380129 1.009964 L 22.850172 1.009964 C 22.937726 1.009964 23.02528 1.01415 23.112834 1.022873 C 23.200039 1.031595 23.286895 1.044504 23.372705 1.0616 C 23.458864 1.078696 23.543976 1.099978 23.628042 1.125447 C 23.712107 1.150916 23.794429 1.180572 23.875704 1.214066 C 23.956631 1.24756 24.035813 1.28524 24.113251 1.32641 C 24.190689 1.367928 24.266034 1.412935 24.338938 1.46178 C 24.411841 1.510276 24.482303 1.56261 24.550323 1.618433 C 24.617994 1.673907 24.682875 1.73287 24.744965 1.794973 C 24.807055 1.857076 24.866006 1.92197 24.921817 1.989655 C 24.977279 2.057689 25.029602 2.128166 25.078437 2.201084 C 25.127272 2.274003 25.17227 2.349364 25.213431 2.426818 C 25.25494 2.503924 25.292264 2.583471 25.3261 2.664414 C 25.359586 2.745357 25.389236 2.828045 25.4147 2.912128 C 25.440164 2.995863 25.461442 3.080993 25.478534 3.167169 C 25.495626 3.253346 25.508533 3.339871 25.517253 3.427443 C 25.525625 3.514667 25.53016 3.602239 25.53016 3.69016 L 25.53016 22.54015 C 25.53016 22.627723 25.525625 22.715295 25.517253 22.802518 C 25.508533 22.89009 25.495626 22.976616 25.478534 23.062792 C 25.461442 23.148969 25.440164 23.234099 25.4147 23.317833 C 25.389236 23.401916 25.359586 23.484604 25.3261 23.565547 C 25.292264 23.646839 25.25494 23.726038 25.213431 23.803492 C 25.17227 23.880597 25.127272 23.955958 25.078437 24.028877 C 25.029602 24.101796 24.977279 24.172272 24.921817 24.240306 C 24.866006 24.307991 24.807055 24.372885 24.744965 24.434988 C 24.682875 24.497091 24.617994 24.556054 24.550323 24.611528 C 24.482303 24.667351 24.411841 24.719685 24.338938 24.768181 C 24.266034 24.817026 24.190689 24.862033 24.113251 24.903552 C 24.035813 24.94507 23.956631 24.982401 23.875704 25.015895 C 23.794429 25.049738 23.712107 25.079045 23.628042 25.104514 C 23.543976 25.129983 23.458864 25.151266 23.372705 25.168361 C 23.286895 25.185457 23.200039 25.198366 23.112834 25.207089 C 23.02528 25.215811 22.937726 25.219998 22.850172 25.219998 L 4.380129 25.219998 C 4.292226 25.219998 4.204672 25.215811 4.117467 25.207089 C 4.029913 25.198366 3.943406 25.185457 3.857247 25.168361 C 3.771088 25.151266 3.685976 25.129983 3.60191 25.104514 C 3.518193 25.079045 3.435523 25.049738 3.354248 25.015895 C 3.273321 24.982401 3.194139 24.94507 3.116701 24.903552 C 3.039263 24.862033 2.963918 24.817026 2.891014 24.768181 C 2.818111 24.719685 2.747649 24.667351 2.679978 24.611528 C 2.611958 24.556054 2.547077 24.497091 2.484987 24.434988 C 2.422897 24.372885 2.363947 24.307991 2.308484 24.240306 C 2.252673 24.172272 2.20035 24.101796 2.151515 24.028877 C 2.103029 23.955958 2.057682 23.880597 2.016521 23.803492 C 1.975012 23.726038 1.937688 23.646839 1.903852 23.565547 C 1.870366 23.484604 1.840716 23.401916 1.815252 23.317833 C 1.789788 23.234099 1.76851 23.148969 1.751418 23.062792 C 1.734326 22.976616 1.721419 22.89009 1.713048 22.802518 C 1.704327 22.715295 1.700141 22.627723 1.700141 22.54015 L 1.700141 3.69016 C 1.700141 3.602239 1.704327 3.514667 1.713048 3.427443 C 1.721419 3.339871 1.734326 3.253346 1.751418 3.167169 C 1.76851 3.080993 1.789788 2.995863 1.815252 2.912128 C 1.840716 2.828045 1.870366 2.745357 1.903852 2.664414 C 1.937688 2.583471 1.975012 2.503924 2.016521 2.426818 C 2.057682 2.349364 2.103029 2.274003 2.151515 2.201084 C 2.20035 2.128166 2.252673 2.057689 2.308484 1.989655 C 2.363947 1.92197 2.422897 1.857076 2.484987 1.794973 C 2.547077 1.73287 2.611958 1.673907 2.679978 1.618433 C 2.747649 1.56261 2.818111 1.510276 2.891014 1.46178 C 2.963918 1.412935 3.039263 1.367928 3.116701 1.32641 C 3.194139 1.28524 3.273321 1.24756 3.354248 1.214066 C 3.435523 1.180572 3.518193 1.150916 3.60191 1.125447 C 3.685976 1.099978 3.771088 1.078696 3.857247 1.0616 C 3.943406 1.044504 4.029913 1.031595 4.117467 1.022873 C 4.204672 1.01415 4.292226 1.009964 4.380129 1.009964 Z M 4.380129 1.009964 " stroke="rgb(0%, 0%, 0%)" stroke-width="1.5" stroke-opacity="1" stroke-miterlimit="4"/></g><g clip-path="url(#clip-1)"><path stroke-linecap="round" transform="matrix(11.198454, 0, 0, 11.196126, 48.20714, 48.770444)" fill="none" stroke-linejoin="round" d="M 55.689874 0.999846 L 37.219831 0.999846 C 37.132277 0.999846 37.044723 1.004381 36.957169 1.012755 C 36.869964 1.021477 36.783108 1.034386 36.697298 1.051482 C 36.611139 1.068578 36.526027 1.08986 36.441961 1.115329 C 36.357896 1.140799 36.275574 1.170454 36.194299 1.203948 C 36.113372 1.237442 36.03419 1.275122 35.956752 1.316292 C 35.879314 1.35781 35.803969 1.402817 35.731065 1.451662 C 35.658162 1.500507 35.5877 1.552492 35.51968 1.608315 C 35.452009 1.664138 35.387128 1.722752 35.325038 1.784855 C 35.262948 1.846958 35.203997 1.911852 35.148186 1.979886 C 35.092724 2.047571 35.040401 2.118048 34.991566 2.190966 C 34.942731 2.263885 34.897733 2.339246 34.856572 2.4167 C 34.815063 2.494155 34.777739 2.573353 34.743903 2.654296 C 34.710416 2.735588 34.680767 2.817927 34.655303 2.90201 C 34.629839 2.986094 34.608561 3.071224 34.591469 3.157051 C 34.574377 3.243228 34.56147 3.330102 34.55275 3.417325 C 34.544378 3.504549 34.539843 3.592121 34.539843 3.680042 L 34.539843 22.519915 C 34.539843 22.607836 34.54368 22.695757 34.552052 22.783329 C 34.560424 22.870901 34.572981 22.957775 34.589725 23.044301 C 34.606817 23.130477 34.627746 23.215956 34.652861 23.300039 C 34.678325 23.384472 34.707626 23.467159 34.741113 23.5488 C 34.774599 23.630092 34.811923 23.70964 34.853084 23.787094 C 34.894594 23.864897 34.939592 23.940607 34.988078 24.013874 C 35.036912 24.087142 35.089236 24.157618 35.144698 24.225653 C 35.200509 24.294036 35.25946 24.359279 35.32155 24.421382 C 35.38364 24.483833 35.448521 24.542796 35.516541 24.598968 C 35.584212 24.654791 35.655022 24.707125 35.727926 24.756319 C 35.801178 24.805164 35.876174 24.85052 35.953961 24.892038 C 36.0314 24.933556 36.110931 24.971237 36.192206 25.005079 C 36.273481 25.038922 36.356151 25.068578 36.440217 25.094047 C 36.524283 25.119516 36.609744 25.141148 36.695903 25.158244 C 36.782061 25.175339 36.869266 25.188248 36.95682 25.196971 C 37.044374 25.205693 37.131928 25.20988 37.219831 25.20988 L 55.689874 25.20988 C 55.778126 25.20988 55.86568 25.205693 55.953234 25.196971 C 56.040788 25.188248 56.127644 25.175339 56.214151 25.158244 C 56.30031 25.141148 56.385422 25.119516 56.469837 25.094047 C 56.553902 25.068578 56.636573 25.038922 56.717848 25.005079 C 56.799123 24.971237 56.878654 24.933556 56.956092 24.892038 C 57.033531 24.85052 57.108876 24.805164 57.182128 24.756319 C 57.255032 24.707125 57.325493 24.654791 57.393513 24.598968 C 57.461533 24.542796 57.526414 24.483833 57.588504 24.421382 C 57.650594 24.359279 57.709545 24.294036 57.765356 24.226001 C 57.820818 24.157618 57.873141 24.087142 57.921976 24.013874 C 57.970462 23.940607 58.01546 23.864897 58.05697 23.787443 C 58.098131 23.70964 58.135454 23.630092 58.168941 23.5488 C 58.202428 23.467159 58.231729 23.384472 58.256844 23.300039 C 58.282308 23.215956 58.303237 23.130477 58.320329 23.044301 C 58.337073 22.957775 58.34963 22.870901 58.358002 22.783329 C 58.366374 22.695757 58.370211 22.607836 58.369862 22.519915 L 58.369862 3.680042 C 58.369862 3.592121 58.365676 3.504549 58.356955 3.417325 C 58.348584 3.330102 58.335677 3.243228 58.318585 3.157051 C 58.301493 3.071224 58.280215 2.986094 58.254751 2.90201 C 58.229287 2.817927 58.199637 2.735588 58.166151 2.654296 C 58.132315 2.573353 58.094991 2.494155 58.053482 2.4167 C 58.012321 2.339246 57.966974 2.263885 57.918488 2.190966 C 57.869653 2.118048 57.81733 2.047571 57.761519 1.979886 C 57.706056 1.911852 57.647106 1.846958 57.585016 1.784855 C 57.522926 1.722752 57.458045 1.664138 57.390025 1.608315 C 57.322354 1.552492 57.251892 1.500507 57.178989 1.451662 C 57.106085 1.402817 57.03074 1.35781 56.953302 1.316292 C 56.875864 1.275122 56.796681 1.237442 56.715755 1.203948 C 56.63448 1.170454 56.551809 1.140799 56.468093 1.115329 C 56.384027 1.08986 56.298915 1.068578 56.212756 1.051482 C 56.126597 1.034386 56.04009 1.021477 55.952536 1.012755 C 55.865331 1.004381 55.777777 0.999846 55.689874 0.999846 Z M 55.689874 0.999846 " stroke="rgb(0%, 0%, 0%)" stroke-width="1.5" stroke-opacity="1" stroke-miterlimit="4"/></g><g clip-path="url(#clip-2)"><path stroke-linecap="round" transform="matrix(11.198454, 0, 0, 11.196126, 48.20714, 48.770444)" fill="none" stroke-linejoin="round" d="M 4.310016 34.790132 L 22.780059 34.790132 C 22.867613 34.790132 22.955167 34.794319 23.042721 34.803041 C 23.129926 34.811415 23.216782 34.824324 23.302941 34.84142 C 23.3891 34.858515 23.473863 34.879798 23.557929 34.905267 C 23.641995 34.930736 23.724665 34.960392 23.805591 34.993886 C 23.886518 35.027729 23.966049 35.06506 24.043487 35.106578 C 24.120576 35.147748 24.195921 35.192755 24.268825 35.2416 C 24.342077 35.290445 24.41219 35.342779 24.48021 35.398253 C 24.547881 35.454076 24.613111 35.513039 24.675201 35.574793 C 24.736942 35.636896 24.795893 35.702139 24.851704 35.769824 C 24.907515 35.837509 24.959489 35.907986 25.008324 35.980904 C 25.057159 36.054172 25.102157 36.129184 25.143667 36.206638 C 25.184827 36.284092 25.2225 36.363291 25.255987 36.444234 C 25.289474 36.525526 25.319123 36.608214 25.344587 36.691948 C 25.370051 36.776031 25.391329 36.861161 25.408421 36.946989 C 25.425514 37.033166 25.43842 37.12004 25.44714 37.207263 C 25.455861 37.294835 25.460047 37.382059 25.460047 37.46998 L 25.460047 56.31997 C 25.460047 56.407891 25.455861 56.495464 25.44714 56.582687 C 25.43842 56.66991 25.425514 56.756784 25.408421 56.842961 C 25.391329 56.928789 25.370051 57.013919 25.344587 57.098002 C 25.319123 57.182085 25.289474 57.264424 25.255987 57.345716 C 25.2225 57.426659 25.184827 57.505858 25.143667 57.583312 C 25.102157 57.660766 25.057159 57.735778 25.008324 57.809046 C 24.959489 57.881964 24.907515 57.952441 24.851704 58.020126 C 24.795893 58.08816 24.736942 58.153054 24.675201 58.215157 C 24.613111 58.27726 24.547881 58.335874 24.48021 58.391697 C 24.41219 58.44752 24.342077 58.499505 24.268825 58.54835 C 24.195921 58.597195 24.120576 58.642202 24.043487 58.68372 C 23.966049 58.72489 23.886518 58.76257 23.805591 58.796064 C 23.724665 58.829558 23.641995 58.859214 23.557929 58.884683 C 23.473863 58.910152 23.3891 58.931434 23.302941 58.94853 C 23.216782 58.965626 23.129926 58.978535 23.042721 58.987257 C 22.955167 58.995631 22.867613 59.000166 22.780059 59.000166 L 4.310016 59.000166 C 4.222113 59.000166 4.134559 58.995631 4.047354 58.987257 C 3.9598 58.978535 3.873293 58.965626 3.787134 58.94853 C 3.700975 58.931434 3.615863 58.910152 3.532146 58.884683 C 3.448081 58.859214 3.36541 58.829558 3.284484 58.796064 C 3.203209 58.76257 3.124026 58.72489 3.046588 58.68372 C 2.96915 58.642202 2.894154 58.597195 2.820901 58.54835 C 2.747998 58.499505 2.677536 58.44752 2.609865 58.391697 C 2.541845 58.335874 2.476964 58.27726 2.414874 58.215157 C 2.352784 58.153054 2.294182 58.08816 2.238371 58.020126 C 2.18256 57.952441 2.130586 57.881964 2.081751 57.809046 C 2.032916 57.735778 1.987918 57.660766 1.946408 57.583312 C 1.905248 57.505858 1.867575 57.426659 1.834088 57.345716 C 1.800253 57.264424 1.770952 57.182085 1.745488 57.098002 C 1.720024 57.013919 1.698746 56.928789 1.681654 56.842961 C 1.664213 56.756784 1.651655 56.66991 1.642935 56.582687 C 1.634214 56.495464 1.630028 56.407891 1.630028 56.31997 L 1.630028 37.46998 C 1.630028 37.382059 1.634214 37.294835 1.642935 37.207263 C 1.651655 37.12004 1.664213 37.033166 1.681654 36.946989 C 1.698746 36.861161 1.720024 36.776031 1.745488 36.691948 C 1.770952 36.608214 1.800253 36.525526 1.834088 36.444234 C 1.867575 36.363291 1.905248 36.284092 1.946408 36.206638 C 1.987918 36.129184 2.032916 36.054172 2.081751 35.980904 C 2.130586 35.907986 2.18256 35.837509 2.238371 35.769824 C 2.294182 35.702139 2.352784 35.636896 2.414874 35.574793 C 2.476964 35.513039 2.541845 35.454076 2.609865 35.398253 C 2.677536 35.342779 2.747998 35.290445 2.820901 35.2416 C 2.894154 35.192755 2.96915 35.147748 3.046588 35.106578 C 3.124026 35.06506 3.203209 35.027729 3.284484 34.993886 C 3.36541 34.960392 3.448081 34.930736 3.532146 34.905267 C 3.615863 34.879798 3.700975 34.858515 3.787134 34.84142 C 3.873293 34.824324 3.9598 34.811415 4.047354 34.803041 C 4.134559 34.794319 4.222113 34.790132 4.310016 34.790132 Z M 4.310016 34.790132 " stroke="rgb(0%, 0%, 0%)" stroke-width="1.5" stroke-opacity="1" stroke-miterlimit="4"/></g><g clip-path="url(#clip-3)"><path stroke-linecap="round" transform="matrix(11.198454, 0, 0, 11.196126, 48.20714, 48.770444)" fill="none" stroke-linejoin="round" d="M 55.689874 34.599986 L 37.219831 34.599986 C 37.132277 34.599986 37.044723 34.604172 36.957169 34.612895 C 36.869964 34.621617 36.783108 34.634526 36.697298 34.651622 C 36.611139 34.668718 36.526027 34.69 36.441961 34.715469 C 36.357896 34.740939 36.275574 34.770246 36.194299 34.804088 C 36.113372 34.837582 36.03419 34.874913 35.956752 34.916432 C 35.879314 34.95795 35.803969 35.002957 35.731065 35.051802 C 35.658162 35.100298 35.5877 35.152632 35.51968 35.208455 C 35.452009 35.263929 35.387128 35.322892 35.325038 35.384995 C 35.262948 35.447098 35.203997 35.511992 35.148186 35.579677 C 35.092724 35.647711 35.040401 35.718188 34.991566 35.791106 C 34.942731 35.864025 34.897733 35.939386 34.856572 36.016491 C 34.815063 36.093946 34.777739 36.173144 34.743903 36.254436 C 34.710416 36.33538 34.680767 36.418067 34.655303 36.50215 C 34.629839 36.585885 34.608561 36.671015 34.591469 36.757191 C 34.574377 36.843368 34.56147 36.929893 34.55275 37.017465 C 34.544378 37.104689 34.539843 37.192261 34.539843 37.279833 L 34.539843 56.120055 C 34.539843 56.207627 34.544378 56.295199 34.55275 56.382771 C 34.56147 56.469994 34.574377 56.556869 34.591469 56.642696 C 34.608561 56.728873 34.629839 56.814003 34.655303 56.898086 C 34.680767 56.98182 34.710416 57.064508 34.743903 57.145451 C 34.777739 57.226743 34.815063 57.305942 34.856572 57.383396 C 34.897733 57.46085 34.942731 57.535862 34.991566 57.608781 C 35.040401 57.682049 35.092724 57.752176 35.148186 57.82021 C 35.203997 57.887895 35.262948 57.953138 35.325038 58.014893 C 35.387128 58.076995 35.452009 58.135958 35.51968 58.191781 C 35.5877 58.247255 35.658162 58.299589 35.731065 58.348434 C 35.803969 58.39693 35.879314 58.442286 35.956752 58.483456 C 36.03419 58.524974 36.113372 58.562306 36.194299 58.596148 C 36.275574 58.629642 36.357896 58.658949 36.441961 58.684767 C 36.526027 58.710236 36.611139 58.731519 36.697298 58.748614 C 36.783108 58.76571 36.869964 58.778619 36.957169 58.786993 C 37.044723 58.795715 37.132277 58.799902 37.219831 58.799902 L 55.689874 58.799902 C 55.777777 58.799902 55.865331 58.795715 55.952536 58.786993 C 56.04009 58.778619 56.126597 58.76571 56.212756 58.748614 C 56.298915 58.731519 56.384027 58.710236 56.468093 58.684767 C 56.551809 58.658949 56.63448 58.629642 56.715755 58.596148 C 56.796681 58.562306 56.875864 58.524974 56.953302 58.483456 C 57.03074 58.442286 57.106085 58.39693 57.178989 58.348434 C 57.251892 58.299589 57.322354 58.247255 57.390025 58.191781 C 57.458045 58.135958 57.522926 58.076995 57.585016 58.014893 C 57.647106 57.953138 57.706056 57.887895 57.761519 57.82021 C 57.81733 57.752176 57.869653 57.682049 57.918488 57.608781 C 57.966974 57.535862 58.012321 57.46085 58.053482 57.383396 C 58.094991 57.305942 58.132315 57.226743 58.166151 57.145451 C 58.199637 57.064508 58.229287 56.98182 58.254751 56.898086 C 58.280215 56.814003 58.301493 56.728873 58.318585 56.642696 C 58.335677 56.556869 58.348584 56.469994 58.356955 56.382771 C 58.365676 56.295199 58.369862 56.207627 58.369862 56.120055 L 58.369862 37.279833 C 58.369862 37.192261 58.365676 37.104689 58.356955 37.017465 C 58.348584 36.929893 58.335677 36.843368 58.318585 36.757191 C 58.301493 36.671015 58.280215 36.585885 58.254751 36.50215 C 58.229287 36.418067 58.199637 36.33538 58.166151 36.254436 C 58.132315 36.173144 58.094991 36.093946 58.053482 36.016491 C 58.012321 35.939386 57.966974 35.864025 57.918488 35.791106 C 57.869653 35.718188 57.81733 35.647711 57.761519 35.579677 C 57.706056 35.511992 57.647106 35.447098 57.585016 35.384995 C 57.522926 35.322892 57.458045 35.263929 57.390025 35.208455 C 57.322354 35.152632 57.251892 35.100298 57.178989 35.051802 C 57.106085 35.002957 57.03074 34.95795 56.953302 34.916432 C 56.875864 34.874913 56.796681 34.837582 56.715755 34.804088 C 56.63448 34.770246 56.551809 34.740939 56.468093 34.715469 C 56.384027 34.69 56.298915 34.668718 56.212756 34.651622 C 56.126597 34.634526 56.04009 34.621617 55.952536 34.612895 C 55.865331 34.604172 55.777777 34.599986 55.689874 34.599986 Z M 55.689874 34.599986 " stroke="rgb(0%, 0%, 0%)" stroke-width="1.5" stroke-opacity="1" stroke-miterlimit="4"/></g><path stroke-linecap="round" transform="matrix(11.198454, 0, 0, 11.196126, 48.20714, 48.770444)" fill="none" stroke-linejoin="round" d="M 13.639917 5.190051 L 13.639917 21.069915 " stroke="rgb(0%, 0%, 0%)" stroke-width="1.5" stroke-opacity="1" stroke-miterlimit="4"/><path stroke-linecap="round" transform="matrix(11.198454, 0, 0, 11.196126, 48.20714, 48.770444)" fill="none" stroke-linejoin="round" d="M 21.580117 13.130157 L 5.709832 13.130157 " stroke="rgb(0%, 0%, 0%)" stroke-width="1.5" stroke-opacity="1" stroke-miterlimit="4"/><path stroke-linecap="round" transform="matrix(11.198454, 0, 0, 11.196126, 48.20714, 48.770444)" fill="none" stroke-linejoin="round" d="M 54.410052 13.130157 L 38.540116 13.130157 " stroke="rgb(0%, 0%, 0%)" stroke-width="1.5" stroke-opacity="1" stroke-miterlimit="4"/><path stroke-linecap="round" transform="matrix(11.198454, 0, 0, 11.196126, 48.20714, 48.770444)" fill="none" stroke-linejoin="round" d="M 19.260112 41.519929 L 8.029837 52.739979 " stroke="rgb(0%, 0%, 0%)" stroke-width="1.5" stroke-opacity="1" stroke-miterlimit="4"/><path stroke-linecap="round" transform="matrix(11.198454, 0, 0, 11.196126, 48.20714, 48.770444)" fill="none" stroke-linejoin="round" d="M 19.260112 52.739979 L 8.029837 41.519929 " stroke="rgb(0%, 0%, 0%)" stroke-width="1.5" stroke-opacity="1" stroke-miterlimit="4"/><path stroke-linecap="round" transform="matrix(11.198454, 0, 0, 11.196126, 48.20714, 48.770444)" fill="none" stroke-linejoin="round" d="M 54.410052 47.310158 L 38.540116 47.310158 " stroke="rgb(0%, 0%, 0%)" stroke-width="1.5" stroke-opacity="1" stroke-miterlimit="4"/><path stroke-linecap="round" transform="matrix(11.198454, 0, 0, 11.196126, 48.20714, 48.770444)" fill="none" stroke-linejoin="round" d="M 45.890112 42.90015 L 47.150052 42.90015 " stroke="rgb(0%, 0%, 0%)" stroke-width="1.5" stroke-opacity="1" stroke-miterlimit="4"/><path stroke-linecap="round" transform="matrix(11.198454, 0, 0, 11.196126, 48.20714, 48.770444)" fill="none" stroke-linejoin="round" d="M 45.890112 51.770057 L 47.150052 51.770057 " stroke="rgb(0%, 0%, 0%)" stroke-width="1.5" stroke-opacity="1" stroke-miterlimit="4"/></svg>