<?xml version="1.0" encoding="UTF-8"?><svg xmlns="http://www.w3.org/2000/svg" xmlns:xlink="http://www.w3.org/1999/xlink" contentScriptType="text/ecmascript" width="768" zoomAndPan="magnify" contentStyleType="text/css" viewBox="0 0 768 767.999994" height="767.999994" preserveAspectRatio="xMidYMid meet" version="1.0"><defs><clipPath id="clip-0"><path d="M 62.492188 299 L 384 299 L 384 720.84375 L 62.492188 720.84375 Z M 62.492188 299 " clip-rule="nonzero"/></clipPath><clipPath id="clip-1"><path d="M 383 299 L 705.242188 299 L 705.242188 720.84375 L 383 720.84375 Z M 383 299 " clip-rule="nonzero"/></clipPath><clipPath id="clip-2"><path d="M 62.492188 78 L 705.242188 78 L 705.242188 461 L 62.492188 461 Z M 62.492188 78 " clip-rule="nonzero"/></clipPath><clipPath id="clip-3"><path d="M 307 47.34375 L 461 47.34375 L 461 140 L 307 140 Z M 307 47.34375 " clip-rule="nonzero"/></clipPath></defs><rect x="-76.8" width="921.6" fill="rgb(100%, 100%, 100%)" y="-76.799999" height="921.599993" fill-opacity="1"/><rect x="-76.8" width="921.6" fill="rgb(100%, 100%, 100%)" y="-76.799999" height="921.599993" fill-opacity="1"/><rect x="-76.8" width="921.6" fill="rgb(100%, 100%, 100%)" y="-76.799999" height="921.599993" fill-opacity="1"/><g clip-path="url(#clip-0)"><path fill="rgb(21.179199%, 21.958923%, 22.349548%)" d="M 383.867188 460.628906 L 383.867188 720.84375 C 377.902344 720.796875 372.007812 720.132812 366.179688 718.839844 C 360.355469 717.550781 354.726562 715.667969 349.300781 713.191406 C 348.1875 712.867188 347.167969 712.355469 346.242188 711.660156 L 100.585938 574.511719 C 99.832031 574.167969 99.117188 573.761719 98.441406 573.285156 C 95.800781 571.828125 93.269531 570.203125 90.839844 568.414062 C 88.414062 566.625 86.109375 564.683594 83.9375 562.59375 C 81.761719 560.503906 79.730469 558.28125 77.84375 555.925781 C 75.960938 553.570312 74.234375 551.101562 72.671875 548.519531 C 71.109375 545.941406 69.71875 543.269531 68.503906 540.507812 C 67.289062 537.746094 66.257812 534.914062 65.414062 532.019531 C 64.566406 529.121094 63.914062 526.183594 63.449219 523.199219 C 62.988281 520.21875 62.722656 517.21875 62.648438 514.203125 L 62.648438 299.90625 Z M 383.867188 460.628906 " fill-opacity="1" fill-rule="nonzero"/></g><g clip-path="url(#clip-1)"><path fill="rgb(0%, 0%, 0%)" d="M 705.089844 299.90625 L 705.089844 514.203125 C 705.015625 517.21875 704.75 520.21875 704.285156 523.199219 C 703.824219 526.183594 703.171875 529.121094 702.324219 532.019531 C 701.476562 534.914062 700.449219 537.746094 699.234375 540.507812 C 698.019531 543.269531 696.628906 545.941406 695.066406 548.519531 C 693.503906 551.101562 691.777344 553.570312 689.894531 555.925781 C 688.007812 558.28125 685.976562 560.503906 683.800781 562.59375 C 681.628906 564.683594 679.324219 566.625 676.898438 568.414062 C 674.46875 570.203125 671.933594 571.828125 669.296875 573.285156 C 668.6875 573.878906 667.972656 574.289062 667.152344 574.511719 L 421.496094 711.660156 C 420.539062 712.292969 419.519531 712.804688 418.4375 713.191406 C 413.035156 715.738281 407.414062 717.660156 401.582031 718.949219 C 395.746094 720.242188 389.84375 720.875 383.867188 720.84375 L 383.867188 460.628906 Z M 705.089844 299.90625 " fill-opacity="1" fill-rule="nonzero"/></g><g clip-path="url(#clip-2)"><path fill="rgb(49.01886%, 50.19989%, 50.979614%)" d="M 705.089844 284.601562 L 705.089844 299.90625 L 383.867188 460.628906 L 62.648438 299.90625 L 62.648438 284.601562 C 62.722656 281.582031 62.988281 278.582031 63.449219 275.601562 C 63.914062 272.621094 64.566406 269.679688 65.414062 266.785156 C 66.257812 263.886719 67.289062 261.058594 68.503906 258.296875 C 69.71875 255.535156 71.109375 252.863281 72.671875 250.28125 C 74.234375 247.699219 75.960938 245.234375 77.84375 242.878906 C 79.730469 240.523438 81.761719 238.300781 83.9375 236.207031 C 86.109375 234.117188 88.414062 232.179688 90.839844 230.386719 C 93.269531 228.597656 95.800781 226.972656 98.441406 225.515625 C 99.050781 224.921875 99.765625 224.515625 100.585938 224.292969 L 346.242188 87.140625 C 347.199219 86.507812 348.21875 86 349.300781 85.613281 C 352 84.367188 354.761719 83.269531 357.582031 82.320312 C 360.402344 81.375 363.265625 80.582031 366.171875 79.945312 C 369.078125 79.304688 372.011719 78.828125 374.96875 78.503906 C 377.925781 78.183594 380.894531 78.023438 383.867188 78.023438 C 386.84375 78.023438 389.8125 78.183594 392.769531 78.503906 C 395.726562 78.828125 398.660156 79.304688 401.5625 79.945312 C 404.46875 80.582031 407.332031 81.375 410.15625 82.320312 C 412.976562 83.269531 415.734375 84.367188 418.4375 85.613281 C 419.550781 85.9375 420.570312 86.445312 421.496094 87.140625 L 667.152344 224.292969 C 667.90625 224.632812 668.621094 225.042969 669.296875 225.515625 C 671.933594 226.972656 674.46875 228.597656 676.898438 230.386719 C 679.324219 232.179688 681.628906 234.117188 683.800781 236.207031 C 685.976562 238.300781 688.007812 240.523438 689.894531 242.878906 C 691.777344 245.234375 693.503906 247.699219 695.066406 250.28125 C 696.628906 252.863281 698.019531 255.535156 699.234375 258.296875 C 700.449219 261.058594 701.476562 263.886719 702.324219 266.785156 C 703.171875 269.679688 703.824219 272.621094 704.285156 275.601562 C 704.75 278.582031 705.015625 281.582031 705.089844 284.601562 Z M 705.089844 284.601562 " fill-opacity="1" fill-rule="nonzero"/></g><path fill="rgb(0%, 0%, 0%)" d="M 292.09375 169.800781 C 291.085938 169.800781 290.09375 169.898438 289.109375 170.09375 C 288.121094 170.289062 287.167969 170.578125 286.238281 170.964844 C 285.308594 171.347656 284.429688 171.820312 283.59375 172.378906 C 282.757812 172.9375 281.984375 173.570312 281.277344 174.28125 C 280.566406 174.992188 279.933594 175.765625 279.375 176.601562 C 278.816406 177.4375 278.34375 178.320312 277.960938 179.25 C 277.574219 180.175781 277.285156 181.132812 277.089844 182.121094 C 276.894531 183.105469 276.796875 184.101562 276.796875 185.105469 C 276.796875 188.167969 262.050781 200.414062 230.90625 200.414062 C 199.765625 200.414062 185.019531 188.167969 185.019531 185.105469 C 185.019531 184.101562 184.921875 183.105469 184.726562 182.121094 C 184.527344 181.132812 184.238281 180.175781 183.855469 179.25 C 183.46875 178.320312 183 177.4375 182.441406 176.601562 C 181.882812 175.765625 181.25 174.992188 180.539062 174.28125 C 179.828125 173.570312 179.054688 172.9375 178.222656 172.378906 C 177.386719 171.820312 176.503906 171.347656 175.578125 170.964844 C 174.648438 170.578125 173.691406 170.289062 172.707031 170.09375 C 171.722656 169.898438 170.726562 169.800781 169.722656 169.800781 C 168.71875 169.800781 167.722656 169.898438 166.738281 170.09375 C 165.753906 170.289062 164.796875 170.578125 163.871094 170.964844 C 162.941406 171.347656 162.058594 171.820312 161.226562 172.378906 C 160.390625 172.9375 159.617188 173.570312 158.90625 174.28125 C 158.195312 174.992188 157.5625 175.765625 157.003906 176.601562 C 156.445312 177.4375 155.976562 178.320312 155.589844 179.25 C 155.207031 180.175781 154.917969 181.132812 154.71875 182.121094 C 154.523438 183.105469 154.425781 184.101562 154.425781 185.105469 L 154.425781 246.332031 C 154.425781 272.507812 187.3125 292.253906 230.90625 292.253906 C 274.5 292.253906 307.386719 272.507812 307.386719 246.332031 L 307.386719 185.105469 C 307.386719 184.101562 307.289062 183.105469 307.09375 182.121094 C 306.898438 181.132812 306.609375 180.175781 306.222656 179.25 C 305.839844 178.320312 305.367188 177.4375 304.808594 176.601562 C 304.253906 175.765625 303.617188 174.992188 302.90625 174.28125 C 302.199219 173.570312 301.425781 172.9375 300.589844 172.378906 C 299.753906 171.820312 298.875 171.347656 297.945312 170.964844 C 297.019531 170.578125 296.0625 170.289062 295.074219 170.09375 C 294.089844 169.898438 293.097656 169.800781 292.09375 169.800781 Z M 292.09375 169.800781 " fill-opacity="1" fill-rule="nonzero"/><path fill="rgb(0%, 0%, 0%)" d="M 598.015625 169.800781 C 597.011719 169.800781 596.015625 169.898438 595.03125 170.09375 C 594.046875 170.289062 593.089844 170.578125 592.160156 170.964844 C 591.234375 171.347656 590.351562 171.820312 589.515625 172.378906 C 588.683594 172.9375 587.910156 173.570312 587.199219 174.28125 C 586.488281 174.992188 585.855469 175.765625 585.296875 176.601562 C 584.738281 177.4375 584.269531 178.320312 583.882812 179.25 C 583.5 180.175781 583.207031 181.132812 583.011719 182.121094 C 582.816406 183.105469 582.71875 184.101562 582.71875 185.105469 C 582.71875 188.167969 567.972656 200.414062 536.832031 200.414062 C 507.613281 200.414062 491.246094 188.871094 490.941406 184.890625 C 490.871094 183.914062 490.703125 182.953125 490.445312 182.007812 C 490.183594 181.066406 489.835938 180.15625 489.394531 179.277344 C 488.957031 178.402344 488.4375 177.578125 487.835938 176.804688 C 487.234375 176.03125 486.566406 175.324219 485.824219 174.683594 C 485.085938 174.039062 484.292969 173.476562 483.441406 172.988281 C 482.589844 172.503906 481.703125 172.105469 480.773438 171.792969 C 479.84375 171.484375 478.894531 171.265625 477.925781 171.140625 C 476.953125 171.015625 475.980469 170.988281 475.003906 171.054688 C 474.027344 171.097656 473.066406 171.234375 472.121094 171.464844 C 471.171875 171.695312 470.253906 172.011719 469.367188 172.414062 C 468.476562 172.820312 467.636719 173.304688 466.839844 173.871094 C 466.046875 174.4375 465.3125 175.074219 464.640625 175.777344 C 463.964844 176.484375 463.367188 177.25 462.839844 178.070312 C 462.3125 178.890625 461.867188 179.753906 461.503906 180.660156 C 461.140625 181.566406 460.867188 182.5 460.683594 183.457031 C 460.5 184.417969 460.410156 185.386719 460.410156 186.359375 L 460.410156 246.332031 C 460.351562 272.507812 493.238281 292.253906 536.832031 292.253906 C 580.425781 292.253906 613.3125 272.507812 613.3125 246.332031 L 613.3125 185.105469 C 613.3125 184.101562 613.214844 183.105469 613.015625 182.121094 C 612.820312 181.132812 612.53125 180.175781 612.148438 179.25 C 611.761719 178.320312 611.292969 177.4375 610.734375 176.601562 C 610.175781 175.765625 609.542969 174.992188 608.832031 174.28125 C 608.121094 173.570312 607.347656 172.9375 606.511719 172.378906 C 605.679688 171.820312 604.796875 171.347656 603.867188 170.964844 C 602.941406 170.578125 601.984375 170.289062 601 170.09375 C 600.015625 169.898438 599.019531 169.800781 598.015625 169.800781 Z M 598.015625 169.800781 " fill-opacity="1" fill-rule="nonzero"/><path fill="rgb(0%, 0%, 0%)" d="M 445.054688 77.957031 C 444.050781 77.957031 443.054688 78.054688 442.070312 78.253906 C 441.085938 78.449219 440.128906 78.738281 439.199219 79.125 C 438.273438 79.507812 437.390625 79.980469 436.554688 80.539062 C 435.71875 81.097656 434.949219 81.730469 434.238281 82.441406 C 433.527344 83.152344 432.894531 83.925781 432.335938 84.761719 C 431.777344 85.597656 431.304688 86.480469 430.921875 87.40625 C 430.539062 88.335938 430.246094 89.292969 430.050781 90.277344 C 429.855469 91.265625 429.757812 92.261719 429.757812 93.265625 C 429.757812 96.328125 415.011719 108.570312 383.867188 108.570312 C 352.726562 108.570312 337.980469 96.328125 337.980469 93.265625 C 337.980469 92.261719 337.882812 91.265625 337.6875 90.277344 C 337.492188 89.292969 337.199219 88.335938 336.816406 87.40625 C 336.433594 86.480469 335.960938 85.597656 335.402344 84.761719 C 334.84375 83.925781 334.210938 83.152344 333.5 82.441406 C 332.789062 81.730469 332.015625 81.097656 331.183594 80.539062 C 330.347656 79.980469 329.464844 79.507812 328.539062 79.125 C 327.609375 78.738281 326.652344 78.449219 325.667969 78.253906 C 324.683594 78.054688 323.6875 77.957031 322.683594 77.957031 C 321.679688 77.957031 320.683594 78.054688 319.699219 78.253906 C 318.714844 78.449219 317.757812 78.738281 316.832031 79.125 C 315.902344 79.507812 315.019531 79.980469 314.1875 80.539062 C 313.351562 81.097656 312.578125 81.730469 311.867188 82.441406 C 311.15625 83.152344 310.523438 83.925781 309.964844 84.761719 C 309.40625 85.597656 308.9375 86.480469 308.550781 87.40625 C 308.167969 88.335938 307.878906 89.292969 307.683594 90.277344 C 307.484375 91.265625 307.386719 92.261719 307.386719 93.265625 L 307.386719 154.492188 C 307.386719 180.667969 340.273438 200.414062 383.867188 200.414062 C 427.464844 200.414062 460.351562 180.667969 460.351562 154.492188 L 460.351562 93.265625 C 460.351562 92.261719 460.25 91.265625 460.054688 90.277344 C 459.859375 89.292969 459.570312 88.335938 459.183594 87.40625 C 458.800781 86.480469 458.328125 85.597656 457.773438 84.761719 C 457.214844 83.925781 456.578125 83.152344 455.871094 82.441406 C 455.160156 81.730469 454.386719 81.097656 453.550781 80.539062 C 452.714844 79.980469 451.835938 79.507812 450.90625 79.125 C 449.980469 78.738281 449.023438 78.449219 448.039062 78.253906 C 447.050781 78.054688 446.058594 77.957031 445.054688 77.957031 Z M 445.054688 77.957031 " fill-opacity="1" fill-rule="nonzero"/><path fill="rgb(0%, 0%, 0%)" d="M 445.757812 262.894531 C 444.785156 262.851562 443.816406 262.898438 442.855469 263.035156 C 441.890625 263.175781 440.949219 263.40625 440.03125 263.722656 C 439.113281 264.042969 438.230469 264.445312 437.386719 264.933594 C 436.546875 265.421875 435.757812 265.984375 435.023438 266.625 C 434.285156 267.261719 433.617188 267.964844 433.015625 268.730469 C 432.417969 269.496094 431.894531 270.3125 431.449219 271.175781 C 431 272.042969 430.640625 272.941406 430.367188 273.875 C 430.09375 274.8125 429.910156 275.761719 429.820312 276.730469 C 429.453125 280.710938 413.085938 292.253906 383.867188 292.253906 C 352.726562 292.253906 337.980469 280.007812 337.980469 276.945312 C 337.980469 275.941406 337.882812 274.945312 337.6875 273.960938 C 337.492188 272.976562 337.199219 272.019531 336.816406 271.089844 C 336.433594 270.160156 335.960938 269.277344 335.402344 268.441406 C 334.84375 267.605469 334.210938 266.832031 333.5 266.125 C 332.789062 265.414062 332.015625 264.777344 331.183594 264.21875 C 330.347656 263.660156 329.464844 263.191406 328.539062 262.804688 C 327.609375 262.421875 326.652344 262.128906 325.667969 261.933594 C 324.683594 261.738281 323.6875 261.640625 322.683594 261.640625 C 321.679688 261.640625 320.683594 261.738281 319.699219 261.933594 C 318.714844 262.128906 317.757812 262.421875 316.832031 262.804688 C 315.902344 263.191406 315.019531 263.660156 314.1875 264.21875 C 313.351562 264.777344 312.578125 265.414062 311.867188 266.125 C 311.15625 266.832031 310.523438 267.605469 309.964844 268.441406 C 309.40625 269.277344 308.9375 270.160156 308.550781 271.089844 C 308.167969 272.019531 307.878906 272.976562 307.683594 273.960938 C 307.484375 274.945312 307.386719 275.941406 307.386719 276.945312 L 307.386719 338.175781 C 307.386719 364.347656 340.273438 384.09375 383.867188 384.09375 C 427.464844 384.09375 460.351562 364.347656 460.351562 338.175781 L 460.351562 278.171875 C 460.347656 277.195312 460.253906 276.230469 460.070312 275.273438 C 459.886719 274.316406 459.609375 273.386719 459.246094 272.480469 C 458.882812 271.578125 458.4375 270.714844 457.910156 269.894531 C 457.382812 269.074219 456.785156 268.3125 456.109375 267.609375 C 455.4375 266.902344 454.703125 266.269531 453.910156 265.707031 C 453.113281 265.140625 452.273438 264.65625 451.386719 264.253906 C 450.5 263.847656 449.585938 263.535156 448.636719 263.304688 C 447.691406 263.078125 446.730469 262.941406 445.757812 262.894531 Z M 445.757812 262.894531 " fill-opacity="1" fill-rule="nonzero"/><path fill="rgb(21.179199%, 21.958923%, 22.349548%)" d="M 230.90625 139.183594 C 187.3125 139.183594 154.425781 158.929688 154.425781 185.105469 C 154.425781 211.28125 187.3125 231.027344 230.90625 231.027344 C 274.5 231.027344 307.386719 211.28125 307.386719 185.105469 C 307.386719 158.929688 274.5 139.183594 230.90625 139.183594 Z M 230.90625 139.183594 " fill-opacity="1" fill-rule="nonzero"/><path fill="rgb(21.179199%, 21.958923%, 22.349548%)" d="M 536.832031 139.183594 C 493.238281 139.183594 460.351562 158.929688 460.351562 187.769531 C 462.765625 212.8125 494.886719 231.027344 536.832031 231.027344 C 580.425781 231.027344 613.3125 211.28125 613.3125 185.105469 C 613.3125 158.929688 580.425781 139.183594 536.832031 139.183594 Z M 536.832031 139.183594 " fill-opacity="1" fill-rule="nonzero"/><g clip-path="url(#clip-3)"><path fill="rgb(21.179199%, 21.958923%, 22.349548%)" d="M 383.867188 47.34375 C 340.273438 47.34375 307.386719 67.089844 307.386719 93.265625 C 307.386719 119.441406 340.273438 139.183594 383.867188 139.183594 C 427.464844 139.183594 460.351562 119.441406 460.351562 93.265625 C 460.351562 67.089844 427.464844 47.34375 383.867188 47.34375 Z M 383.867188 47.34375 " fill-opacity="1" fill-rule="nonzero"/></g><path fill="rgb(21.179199%, 21.958923%, 22.349548%)" d="M 383.867188 231.027344 C 340.273438 231.027344 307.386719 250.773438 307.386719 276.945312 C 307.386719 303.121094 340.273438 322.867188 383.867188 322.867188 C 425.8125 322.867188 457.933594 304.652344 460.351562 278.171875 L 460.351562 276.945312 C 460.351562 250.773438 427.464844 231.027344 383.867188 231.027344 Z M 383.867188 231.027344 " fill-opacity="1" fill-rule="nonzero"/></svg>