<?xml version="1.0" encoding="UTF-8"?><svg xmlns="http://www.w3.org/2000/svg" xmlns:xlink="http://www.w3.org/1999/xlink" contentScriptType="text/ecmascript" width="768" zoomAndPan="magnify" contentStyleType="text/css" viewBox="0 0 768 767.999994" height="767.999994" preserveAspectRatio="xMidYMid meet" version="1.0"><defs><clipPath id="clip-0"><path d="M 44 117 L 724 117 L 724 701.21875 L 44 701.21875 Z M 44 117 " clip-rule="nonzero"/></clipPath></defs><rect x="-76.8" width="921.6" fill="rgb(100%, 100%, 100%)" y="-76.799999" height="921.599993" fill-opacity="1"/><rect x="-76.8" width="921.6" fill="rgb(100%, 100%, 100%)" y="-76.799999" height="921.599993" fill-opacity="1"/><rect x="-76.8" width="921.6" fill="rgb(100%, 100%, 100%)" y="-76.799999" height="921.599993" fill-opacity="1"/><g clip-path="url(#clip-0)"><path fill="rgb(0%, 0%, 0%)" d="M 383.9375 117.613281 L 645.984375 217.164062 L 366.738281 317.59375 L 117.972656 218.726562 Z M 82.6875 238.667969 L 344.101562 342.566406 L 307.683594 409.597656 L 44.03125 308.167969 Z M 87.878906 362.804688 L 304.195312 444.042969 C 306.03125 444.765625 310.539062 445.085938 312.398438 445.085938 C 318.0625 445.085938 329.234375 442.046875 332.066406 436.859375 L 359.804688 396.613281 L 359.804688 700.472656 L 87.878906 596.617188 Z M 654.390625 596.140625 L 382.464844 701.308594 L 382.464844 384.828125 L 423.957031 444.519531 C 426.945312 448.847656 431.820312 451.292969 436.847656 451.292969 C 438.777344 451.292969 434.5625 450.976562 436.394531 450.273438 L 654.34375 364.074219 Z M 442.695312 416.304688 L 391.234375 342.339844 L 684.324219 236.992188 L 723.910156 308.167969 Z M 442.695312 416.304688 " fill-opacity="1" fill-rule="nonzero"/></g></svg>