<svg xmlns="http://www.w3.org/2000/svg" width="768" viewBox="0 0 768 768" height="768" version="1.0"><defs><clipPath id="a"><path d="M 75.996094 75.117188 L 691.746094 75.117188 L 691.746094 693 L 75.996094 693 Z M 75.996094 75.117188"/></clipPath></defs><g clip-path="url(#a)"><path fill="#717273" d="M 691.746094 384.121094 C 691.746094 554.429688 553.941406 692.242188 383.871094 692.242188 C 213.785156 692.230469 75.996094 554.429688 75.996094 384.121094 C 75.996094 213.933594 213.785156 75.988281 383.871094 75.988281 C 553.941406 75.988281 691.746094 213.933594 691.746094 384.121094 Z M 691.746094 384.121094"/></g><path fill="#FFF" d="M 300.011719 243.289062 L 530.90625 474.371094 L 476.480469 528.84375 L 245.582031 297.765625 Z M 300.011719 243.289062"/><path fill="#FFF" d="M 300.046875 528.847656 L 245.605469 474.375 L 476.464844 243.28125 L 530.894531 297.742188 Z M 300.046875 528.847656"/></svg>