<?xml version="1.0" encoding="UTF-8"?><svg xmlns="http://www.w3.org/2000/svg" xmlns:xlink="http://www.w3.org/1999/xlink" contentScriptType="text/ecmascript" width="768" zoomAndPan="magnify" contentStyleType="text/css" viewBox="0 0 768 767.999994" height="767.999994" preserveAspectRatio="xMidYMid meet" version="1.0"><defs><clipPath id="clip-0"><path d="M 96.058594 50.636719 L 672.058594 50.636719 L 672.058594 717.386719 L 96.058594 717.386719 Z M 96.058594 50.636719 " clip-rule="nonzero"/></clipPath></defs><rect x="-76.8" width="921.6" fill="rgb(100%, 100%, 100%)" y="-76.799999" height="921.599993" fill-opacity="1"/><rect x="-76.8" width="921.6" fill="rgb(100%, 100%, 100%)" y="-76.799999" height="921.599993" fill-opacity="1"/><rect x="-76.8" width="921.6" fill="rgb(100%, 100%, 100%)" y="-76.799999" height="921.599993" fill-opacity="1"/><g clip-path="url(#clip-0)"><path fill="rgb(0%, 0%, 0%)" d="M 156.71875 50.636719 C 123.375 50.636719 96.09375 77.914062 96.09375 111.253906 L 96.09375 535.546875 L 156.71875 535.546875 L 156.71875 111.253906 L 520.464844 111.253906 L 520.464844 50.636719 Z M 277.96875 171.867188 C 244.625 171.867188 217.34375 199.140625 217.34375 232.480469 L 217.34375 656.773438 C 217.34375 690.113281 244.625 717.386719 277.96875 717.386719 L 611.398438 717.386719 C 644.742188 717.386719 672.023438 690.113281 672.023438 656.773438 L 672.023438 232.480469 C 672.023438 198.992188 644.894531 171.867188 611.398438 171.867188 Z M 277.96875 232.480469 L 611.398438 232.480469 L 611.398438 656.773438 L 277.96875 656.773438 Z M 338.589844 293.09375 L 338.589844 353.707031 L 550.773438 353.707031 L 550.773438 293.09375 Z M 338.589844 414.320312 L 338.589844 474.933594 L 550.773438 474.933594 L 550.773438 414.320312 Z M 338.589844 535.546875 L 338.589844 596.160156 L 550.773438 596.160156 L 550.773438 535.546875 Z M 338.589844 535.546875 " fill-opacity="1" fill-rule="nonzero"/></g></svg>