<?xml version="1.0" encoding="UTF-8"?><svg xmlns="http://www.w3.org/2000/svg" xmlns:xlink="http://www.w3.org/1999/xlink" contentScriptType="text/ecmascript" width="768" zoomAndPan="magnify" contentStyleType="text/css" viewBox="0 0 768 767.999994" height="767.999994" preserveAspectRatio="xMidYMid meet" version="1.0"><defs><clipPath id="clip-0"><path d="M 58.285156 58.285156 L 710.035156 58.285156 L 710.035156 710.035156 L 58.285156 710.035156 Z M 58.285156 58.285156 " clip-rule="nonzero"/></clipPath></defs><rect x="-76.8" width="921.6" fill="rgb(100%, 100%, 100%)" y="-76.799999" height="921.599993" fill-opacity="1"/><rect x="-76.8" width="921.6" fill="rgb(100%, 100%, 100%)" y="-76.799999" height="921.599993" fill-opacity="1"/><rect x="-76.8" width="921.6" fill="rgb(100%, 100%, 100%)" y="-76.799999" height="921.599993" fill-opacity="1"/><g clip-path="url(#clip-0)"><path fill="rgb(0%, 0%, 0%)" d="M 384.160156 58.285156 C 335.324219 58.285156 295.285156 98.324219 295.285156 147.160156 C 295.285156 195.996094 335.324219 236.035156 384.160156 236.035156 C 432.996094 236.035156 473.035156 195.996094 473.035156 147.160156 C 473.035156 98.324219 432.996094 58.285156 384.160156 58.285156 Z M 384.160156 117.535156 C 400.824219 117.535156 413.785156 130.496094 413.785156 147.160156 C 413.785156 163.824219 400.824219 176.785156 384.160156 176.785156 C 367.496094 176.785156 354.535156 163.824219 354.535156 147.160156 C 354.535156 130.496094 367.496094 117.535156 384.160156 117.535156 Z M 58.285156 354.535156 L 58.285156 413.785156 L 710.035156 413.785156 L 710.035156 354.535156 Z M 384.160156 532.285156 C 335.324219 532.285156 295.285156 572.324219 295.285156 621.160156 C 295.285156 669.996094 335.324219 710.035156 384.160156 710.035156 C 432.996094 710.035156 473.035156 669.996094 473.035156 621.160156 C 473.035156 572.324219 432.996094 532.285156 384.160156 532.285156 Z M 384.160156 591.535156 C 400.824219 591.535156 413.785156 604.496094 413.785156 621.160156 C 413.785156 637.824219 400.824219 650.785156 384.160156 650.785156 C 367.496094 650.785156 354.535156 637.824219 354.535156 621.160156 C 354.535156 604.496094 367.496094 591.535156 384.160156 591.535156 Z M 384.160156 591.535156 " fill-opacity="1" fill-rule="nonzero"/></g></svg>