<?xml version="1.0" encoding="UTF-8"?><svg xmlns="http://www.w3.org/2000/svg" xmlns:xlink="http://www.w3.org/1999/xlink" contentScriptType="text/ecmascript" width="768" zoomAndPan="magnify" contentStyleType="text/css" viewBox="0 0 768 767.999994" height="767.999994" preserveAspectRatio="xMidYMid meet" version="1.0"><defs><clipPath id="clip-0"><path d="M 547 58.285156 L 710.035156 58.285156 L 710.035156 319 L 547 319 Z M 547 58.285156 " clip-rule="nonzero"/></clipPath><clipPath id="clip-1"><path d="M 58.285156 449 L 222 449 L 222 710.035156 L 58.285156 710.035156 Z M 58.285156 449 " clip-rule="nonzero"/></clipPath></defs><rect x="-76.8" width="921.6" fill="rgb(100%, 100%, 100%)" y="-76.799999" height="921.599993" fill-opacity="1"/><rect x="-76.8" width="921.6" fill="rgb(100%, 100%, 100%)" y="-76.799999" height="921.599993" fill-opacity="1"/><rect x="-76.8" width="921.6" fill="rgb(100%, 100%, 100%)" y="-76.799999" height="921.599993" fill-opacity="1"/><g clip-path="url(#clip-0)"><path fill="rgb(0%, 0%, 0%)" d="M 547.097656 318.984375 L 547.097656 58.285156 L 710.035156 188.636719 Z M 547.097656 318.984375 " fill-opacity="1" fill-rule="nonzero"/></g><g clip-path="url(#clip-1)"><path fill="rgb(0%, 0%, 0%)" d="M 221.222656 449.335938 L 221.222656 710.035156 L 58.285156 579.6875 Z M 221.222656 449.335938 " fill-opacity="1" fill-rule="nonzero"/></g><path fill="rgb(0%, 0%, 0%)" d="M 188.636719 156.046875 C 133.238281 156.046875 90.875 198.410156 90.875 253.8125 L 90.875 475.40625 L 156.046875 423.265625 L 156.046875 253.8125 C 156.046875 234.257812 169.082031 221.222656 188.636719 221.222656 L 612.273438 221.222656 L 612.273438 156.046875 Z M 188.636719 156.046875 " fill-opacity="1" fill-rule="nonzero"/><path fill="rgb(0%, 0%, 0%)" d="M 579.6875 612.273438 C 635.085938 612.273438 677.449219 569.910156 677.449219 514.511719 L 677.449219 292.914062 L 612.273438 345.054688 L 612.273438 514.511719 C 612.273438 534.0625 599.238281 547.097656 579.6875 547.097656 L 156.046875 547.097656 L 156.046875 612.273438 Z M 579.6875 612.273438 " fill-opacity="1" fill-rule="nonzero"/></svg>