<svg xmlns="http://www.w3.org/2000/svg" width="768" viewBox="0 0 768 768" height="768" version="1.0"><defs><clipPath id="a"><path d="M 76.011719 136 L 691.761719 136 L 691.761719 632 L 76.011719 632 Z M 76.011719 136"/></clipPath></defs><g clip-path="url(#a)"><path d="M 125.9375 336.703125 C 98.3125 336.703125 76.011719 359.027344 76.011719 386.683594 C 76.011719 414.339844 98.3125 436.667969 125.9375 436.667969 C 153.5625 436.667969 175.863281 414.339844 175.863281 386.683594 C 175.863281 359.027344 153.5625 336.703125 125.9375 336.703125 Z M 125.9375 136.777344 C 98.3125 136.777344 76.011719 159.101562 76.011719 186.757812 C 76.011719 214.414062 98.3125 236.742188 125.9375 236.742188 C 153.5625 236.742188 175.863281 214.414062 175.863281 186.757812 C 175.863281 159.101562 153.5625 136.777344 125.9375 136.777344 Z M 125.9375 542.125 C 101.476562 542.125 81.503906 561.953125 81.503906 586.609375 C 81.503906 611.265625 101.476562 631.09375 125.9375 631.09375 C 150.402344 631.09375 170.371094 611.265625 170.371094 586.609375 C 170.371094 561.953125 150.402344 542.125 125.9375 542.125 Z M 225.789062 619.929688 L 691.761719 619.929688 L 691.761719 553.289062 L 225.789062 553.289062 Z M 225.789062 420.003906 L 691.761719 420.003906 L 691.761719 353.363281 L 225.789062 353.363281 Z M 225.789062 153.4375 L 225.789062 220.082031 L 691.761719 220.082031 L 691.761719 153.4375 Z M 225.789062 153.4375"/></g></svg>