<?xml version="1.0" encoding="UTF-8"?><svg xmlns="http://www.w3.org/2000/svg" xmlns:xlink="http://www.w3.org/1999/xlink" contentScriptType="text/ecmascript" width="768" zoomAndPan="magnify" contentStyleType="text/css" viewBox="0 0 768 767.999994" height="767.999994" preserveAspectRatio="xMidYMid meet" version="1.0"><defs><clipPath id="clip-0"><path d="M 58.285156 405 L 363 405 L 363 710.035156 L 58.285156 710.035156 Z M 58.285156 405 " clip-rule="nonzero"/></clipPath><clipPath id="clip-1"><path d="M 405 405 L 710.035156 405 L 710.035156 710.035156 L 405 710.035156 Z M 405 405 " clip-rule="nonzero"/></clipPath><clipPath id="clip-2"><path d="M 232 58.285156 L 537 58.285156 L 537 363 L 232 363 Z M 232 58.285156 " clip-rule="nonzero"/></clipPath></defs><rect x="-76.8" width="921.6" fill="rgb(100%, 100%, 100%)" y="-76.799999" height="921.599993" fill-opacity="1"/><rect x="-76.8" width="921.6" fill="rgb(100%, 100%, 100%)" y="-76.799999" height="921.599993" fill-opacity="1"/><rect x="-76.8" width="921.6" fill="rgb(100%, 100%, 100%)" y="-76.799999" height="921.599993" fill-opacity="1"/><g clip-path="url(#clip-0)"><path fill="rgb(0%, 0%, 0%)" d="M 90.875 405.886719 C 89.808594 405.890625 88.746094 405.949219 87.683594 406.058594 C 86.625 406.167969 85.570312 406.328125 84.527344 406.539062 C 83.484375 406.75 82.453125 407.015625 81.433594 407.328125 C 80.414062 407.640625 79.414062 408 78.429688 408.410156 C 77.445312 408.820312 76.484375 409.277344 75.542969 409.78125 C 74.605469 410.289062 73.695312 410.835938 72.808594 411.429688 C 71.921875 412.023438 71.070312 412.65625 70.246094 413.335938 C 69.421875 414.011719 68.632812 414.726562 67.878906 415.480469 C 67.125 416.234375 66.410156 417.023438 65.734375 417.84375 C 65.058594 418.667969 64.421875 419.523438 63.828125 420.410156 C 63.234375 421.292969 62.6875 422.207031 62.183594 423.144531 C 61.679688 424.082031 61.222656 425.046875 60.8125 426.027344 C 60.402344 427.011719 60.039062 428.011719 59.726562 429.03125 C 59.414062 430.050781 59.152344 431.082031 58.941406 432.128906 C 58.726562 433.171875 58.566406 434.222656 58.457031 435.285156 C 58.347656 436.34375 58.292969 437.40625 58.285156 438.472656 L 58.285156 677.449219 C 58.292969 678.515625 58.347656 679.578125 58.457031 680.636719 C 58.566406 681.695312 58.726562 682.75 58.941406 683.792969 C 59.152344 684.839844 59.414062 685.871094 59.726562 686.890625 C 60.039062 687.90625 60.402344 688.910156 60.8125 689.894531 C 61.222656 690.875 61.679688 691.835938 62.183594 692.777344 C 62.6875 693.714844 63.238281 694.628906 63.828125 695.511719 C 64.421875 696.398438 65.058594 697.253906 65.734375 698.074219 C 66.410156 698.898438 67.125 699.6875 67.878906 700.441406 C 68.632812 701.195312 69.421875 701.910156 70.246094 702.585938 C 71.070312 703.261719 71.921875 703.898438 72.808594 704.492188 C 73.695312 705.085938 74.605469 705.632812 75.546875 706.136719 C 76.484375 706.640625 77.445312 707.097656 78.429688 707.511719 C 79.414062 707.921875 80.414062 708.28125 81.433594 708.59375 C 82.453125 708.90625 83.484375 709.167969 84.527344 709.382812 C 85.570312 709.59375 86.625 709.753906 87.683594 709.863281 C 88.746094 709.972656 89.808594 710.03125 90.875 710.035156 L 329.847656 710.035156 C 330.914062 710.03125 331.976562 709.972656 333.035156 709.863281 C 334.097656 709.753906 335.148438 709.59375 336.195312 709.382812 C 337.238281 709.167969 338.269531 708.90625 339.289062 708.59375 C 340.308594 708.28125 341.308594 707.921875 342.292969 707.507812 C 343.277344 707.097656 344.238281 706.640625 345.175781 706.136719 C 346.113281 705.632812 347.027344 705.085938 347.914062 704.492188 C 348.796875 703.898438 349.652344 703.261719 350.476562 702.585938 C 351.300781 701.910156 352.085938 701.195312 352.839844 700.441406 C 353.59375 699.6875 354.308594 698.898438 354.988281 698.074219 C 355.664062 697.253906 356.296875 696.398438 356.890625 695.511719 C 357.484375 694.628906 358.035156 693.714844 358.539062 692.777344 C 359.042969 691.835938 359.5 690.875 359.910156 689.890625 C 360.320312 688.910156 360.683594 687.90625 360.996094 686.890625 C 361.308594 685.871094 361.570312 684.839844 361.78125 683.792969 C 361.992188 682.75 362.152344 681.695312 362.261719 680.636719 C 362.371094 679.578125 362.429688 678.515625 362.4375 677.449219 L 362.4375 438.472656 C 362.429688 437.40625 362.371094 436.34375 362.261719 435.285156 C 362.152344 434.222656 361.992188 433.171875 361.78125 432.128906 C 361.570312 431.082031 361.308594 430.050781 360.996094 429.03125 C 360.683594 428.015625 360.320312 427.011719 359.910156 426.027344 C 359.5 425.046875 359.042969 424.085938 358.539062 423.144531 C 358.035156 422.207031 357.484375 421.292969 356.890625 420.410156 C 356.296875 419.523438 355.664062 418.667969 354.988281 417.847656 C 354.308594 417.023438 353.59375 416.234375 352.839844 415.480469 C 352.085938 414.726562 351.300781 414.011719 350.476562 413.335938 C 349.652344 412.65625 348.796875 412.023438 347.914062 411.429688 C 347.027344 410.835938 346.113281 410.289062 345.175781 409.785156 C 344.238281 409.28125 343.277344 408.820312 342.292969 408.410156 C 341.308594 408 340.308594 407.640625 339.289062 407.328125 C 338.269531 407.015625 337.238281 406.753906 336.195312 406.539062 C 335.148438 406.328125 334.097656 406.167969 333.035156 406.058594 C 331.976562 405.949219 330.914062 405.890625 329.847656 405.886719 Z M 90.875 427.609375 L 329.847656 427.609375 C 330.566406 427.59375 331.277344 427.648438 331.984375 427.777344 C 332.691406 427.902344 333.378906 428.101562 334.046875 428.367188 C 334.710938 428.632812 335.34375 428.964844 335.945312 429.359375 C 336.542969 429.757812 337.097656 430.207031 337.605469 430.714844 C 338.113281 431.222656 338.566406 431.777344 338.960938 432.375 C 339.355469 432.976562 339.6875 433.609375 339.953125 434.277344 C 340.222656 434.941406 340.417969 435.628906 340.546875 436.335938 C 340.671875 437.042969 340.726562 437.753906 340.710938 438.472656 L 340.710938 677.449219 C 340.726562 678.167969 340.671875 678.878906 340.546875 679.585938 C 340.417969 680.292969 340.222656 680.980469 339.953125 681.644531 C 339.6875 682.3125 339.355469 682.945312 338.960938 683.546875 C 338.566406 684.144531 338.113281 684.699219 337.605469 685.207031 C 337.097656 685.714844 336.542969 686.164062 335.945312 686.5625 C 335.34375 686.957031 334.710938 687.289062 334.046875 687.554688 C 333.378906 687.820312 332.691406 688.019531 331.984375 688.144531 C 331.277344 688.273438 330.566406 688.328125 329.847656 688.3125 L 90.875 688.3125 C 90.15625 688.328125 89.441406 688.273438 88.734375 688.144531 C 88.027344 688.019531 87.34375 687.820312 86.675781 687.554688 C 86.007812 687.289062 85.375 686.957031 84.777344 686.5625 C 84.175781 686.167969 83.621094 685.714844 83.113281 685.207031 C 82.605469 684.699219 82.15625 684.144531 81.761719 683.546875 C 81.363281 682.945312 81.035156 682.3125 80.765625 681.644531 C 80.5 680.980469 80.304688 680.292969 80.175781 679.585938 C 80.046875 678.878906 79.992188 678.167969 80.011719 677.449219 L 80.011719 438.472656 C 79.992188 437.753906 80.046875 437.042969 80.175781 436.335938 C 80.304688 435.628906 80.5 434.941406 80.765625 434.277344 C 81.035156 433.609375 81.363281 432.976562 81.761719 432.375 C 82.15625 431.777344 82.605469 431.222656 83.113281 430.714844 C 83.621094 430.207031 84.175781 429.753906 84.777344 429.359375 C 85.375 428.964844 86.007812 428.632812 86.675781 428.367188 C 87.34375 428.101562 88.027344 427.902344 88.734375 427.777344 C 89.441406 427.648438 90.15625 427.59375 90.875 427.609375 Z M 90.875 427.609375 " fill-opacity="1" fill-rule="nonzero"/></g><path fill="rgb(0%, 0%, 0%)" d="M 220.925781 471.0625 C 218.617188 471.121094 216.535156 471.84375 214.6875 473.234375 L 171.367188 505.777344 C 170.800781 506.207031 170.28125 506.6875 169.808594 507.214844 C 169.339844 507.746094 168.921875 508.316406 168.5625 508.929688 C 168.203125 509.539062 167.902344 510.183594 167.667969 510.851562 C 167.433594 511.523438 167.265625 512.207031 167.167969 512.910156 C 167.066406 513.613281 167.035156 514.320312 167.074219 515.027344 C 167.109375 515.738281 167.21875 516.4375 167.390625 517.125 C 167.566406 517.8125 167.804688 518.476562 168.109375 519.117188 C 168.414062 519.757812 168.78125 520.363281 169.203125 520.933594 C 169.625 521.503906 170.101562 522.027344 170.625 522.503906 C 171.152344 522.984375 171.71875 523.402344 172.328125 523.769531 C 172.933594 524.136719 173.574219 524.441406 174.242188 524.679688 C 174.910156 524.921875 175.59375 525.097656 176.296875 525.203125 C 176.996094 525.3125 177.703125 525.347656 178.410156 525.316406 C 179.121094 525.289062 179.820312 525.1875 180.511719 525.019531 C 181.199219 524.851562 181.867188 524.617188 182.511719 524.320312 C 183.15625 524.023438 183.765625 523.664062 184.339844 523.246094 L 184.433594 523.175781 L 210.316406 503.742188 L 210.101562 628.402344 C 210.089844 629.113281 210.148438 629.824219 210.277344 630.523438 C 210.40625 631.226562 210.605469 631.90625 210.867188 632.570312 C 211.132812 633.234375 211.457031 633.863281 211.84375 634.460938 C 212.234375 635.0625 212.675781 635.617188 213.171875 636.128906 C 213.667969 636.640625 214.210938 637.097656 214.800781 637.503906 C 215.386719 637.90625 216.007812 638.25 216.664062 638.53125 C 217.316406 638.816406 217.996094 639.03125 218.691406 639.179688 C 219.390625 639.328125 220.09375 639.410156 220.808594 639.417969 C 221.523438 639.429688 222.230469 639.371094 222.929688 639.238281 C 223.632812 639.109375 224.3125 638.914062 224.976562 638.652344 C 225.640625 638.386719 226.269531 638.0625 226.871094 637.671875 C 227.46875 637.285156 228.023438 636.84375 228.535156 636.347656 C 229.046875 635.847656 229.503906 635.304688 229.910156 634.71875 C 230.3125 634.132812 230.65625 633.511719 230.9375 632.855469 C 231.222656 632.199219 231.4375 631.523438 231.585938 630.828125 C 231.734375 630.128906 231.816406 629.421875 231.824219 628.710938 C 231.824219 628.605469 231.824219 628.507812 231.824219 628.402344 L 232.042969 481.886719 C 232.042969 481.171875 231.972656 480.464844 231.832031 479.765625 C 231.695312 479.066406 231.488281 478.386719 231.214844 477.730469 C 230.941406 477.070312 230.609375 476.445312 230.210938 475.851562 C 229.816406 475.257812 229.363281 474.710938 228.859375 474.207031 C 228.355469 473.699219 227.808594 473.25 227.214844 472.855469 C 226.621094 472.457031 225.996094 472.125 225.335938 471.851562 C 224.679688 471.578125 224 471.371094 223.300781 471.234375 C 222.597656 471.09375 221.894531 471.023438 221.179688 471.023438 L 220.878906 471.023438 Z M 220.925781 471.0625 " fill-opacity="1" fill-rule="evenodd"/><path fill="rgb(0%, 0%, 0%)" d="M 167.082031 623.136719 C 166.367188 623.125 165.65625 623.183594 164.957031 623.3125 C 164.253906 623.441406 163.570312 623.636719 162.90625 623.898438 C 162.242188 624.160156 161.609375 624.488281 161.011719 624.875 C 160.410156 625.261719 159.855469 625.703125 159.339844 626.203125 C 158.828125 626.699219 158.371094 627.242188 157.964844 627.828125 C 157.558594 628.417969 157.214844 629.039062 156.933594 629.695312 C 156.648438 630.351562 156.433594 631.027344 156.285156 631.726562 C 156.132812 632.425781 156.054688 633.128906 156.042969 633.84375 C 156.035156 634.558594 156.09375 635.265625 156.222656 635.96875 C 156.351562 636.671875 156.550781 637.355469 156.816406 638.019531 C 157.078125 638.679688 157.40625 639.3125 157.792969 639.910156 C 158.183594 640.511719 158.625 641.066406 159.125 641.578125 C 159.621094 642.089844 160.167969 642.546875 160.753906 642.953125 C 161.34375 643.355469 161.964844 643.699219 162.621094 643.980469 C 163.277344 644.261719 163.957031 644.476562 164.65625 644.625 C 165.351562 644.773438 166.058594 644.851562 166.773438 644.859375 L 275.398438 644.859375 C 276.113281 644.871094 276.820312 644.8125 277.523438 644.683594 C 278.226562 644.558594 278.910156 644.363281 279.574219 644.097656 C 280.238281 643.835938 280.871094 643.511719 281.46875 643.121094 C 282.070312 642.734375 282.625 642.292969 283.136719 641.792969 C 283.648438 641.296875 284.109375 640.753906 284.515625 640.167969 C 284.921875 639.578125 285.265625 638.957031 285.546875 638.300781 C 285.832031 637.644531 286.046875 636.96875 286.195312 636.269531 C 286.34375 635.570312 286.425781 634.867188 286.433594 634.152344 C 286.445312 633.4375 286.386719 632.730469 286.253906 632.027344 C 286.125 631.324219 285.929688 630.640625 285.664062 629.976562 C 285.398438 629.316406 285.074219 628.683594 284.683594 628.085938 C 284.296875 627.484375 283.851562 626.929688 283.355469 626.417969 C 282.855469 625.90625 282.3125 625.449219 281.722656 625.042969 C 281.136719 624.640625 280.511719 624.296875 279.855469 624.015625 C 279.199219 623.734375 278.523438 623.519531 277.824219 623.371094 C 277.125 623.222656 276.417969 623.144531 275.707031 623.136719 Z M 167.082031 623.136719 " fill-opacity="1" fill-rule="evenodd"/><g clip-path="url(#clip-1)"><path fill="rgb(0%, 0%, 0%)" d="M 438.472656 405.886719 C 437.40625 405.890625 436.34375 405.949219 435.285156 406.058594 C 434.222656 406.167969 433.171875 406.328125 432.128906 406.539062 C 431.082031 406.75 430.050781 407.015625 429.03125 407.328125 C 428.011719 407.640625 427.011719 408 426.027344 408.410156 C 425.046875 408.820312 424.082031 409.277344 423.144531 409.785156 C 422.207031 410.289062 421.292969 410.835938 420.410156 411.429688 C 419.523438 412.023438 418.667969 412.65625 417.84375 413.335938 C 417.023438 414.011719 416.234375 414.726562 415.480469 415.480469 C 414.726562 416.234375 414.011719 417.023438 413.335938 417.84375 C 412.65625 418.667969 412.023438 419.523438 411.429688 420.410156 C 410.835938 421.292969 410.289062 422.207031 409.78125 423.144531 C 409.277344 424.082031 408.820312 425.046875 408.410156 426.027344 C 408 427.011719 407.640625 428.011719 407.328125 429.03125 C 407.015625 430.050781 406.75 431.082031 406.539062 432.128906 C 406.328125 433.171875 406.167969 434.222656 406.058594 435.285156 C 405.949219 436.34375 405.890625 437.40625 405.886719 438.472656 L 405.886719 677.449219 C 405.890625 678.515625 405.949219 679.578125 406.058594 680.636719 C 406.167969 681.695312 406.328125 682.75 406.539062 683.792969 C 406.753906 684.839844 407.015625 685.871094 407.328125 686.890625 C 407.640625 687.90625 408 688.910156 408.410156 689.890625 C 408.820312 690.875 409.28125 691.835938 409.785156 692.777344 C 410.289062 693.714844 410.835938 694.628906 411.429688 695.511719 C 412.023438 696.398438 412.660156 697.253906 413.335938 698.074219 C 414.011719 698.898438 414.726562 699.6875 415.480469 700.441406 C 416.234375 701.195312 417.023438 701.910156 417.847656 702.585938 C 418.667969 703.261719 419.523438 703.898438 420.410156 704.492188 C 421.292969 705.085938 422.207031 705.632812 423.144531 706.136719 C 424.085938 706.640625 425.046875 707.097656 426.027344 707.507812 C 427.011719 707.921875 428.015625 708.28125 429.03125 708.59375 C 430.050781 708.90625 431.082031 709.167969 432.128906 709.382812 C 433.171875 709.59375 434.222656 709.753906 435.285156 709.863281 C 436.34375 709.972656 437.40625 710.03125 438.472656 710.035156 L 677.449219 710.035156 C 678.515625 710.03125 679.578125 709.972656 680.636719 709.863281 C 681.695312 709.753906 682.75 709.59375 683.792969 709.382812 C 684.839844 709.167969 685.871094 708.90625 686.890625 708.59375 C 687.90625 708.28125 688.910156 707.921875 689.890625 707.507812 C 690.875 707.097656 691.835938 706.640625 692.777344 706.136719 C 693.714844 705.632812 694.628906 705.085938 695.511719 704.492188 C 696.398438 703.898438 697.253906 703.261719 698.074219 702.585938 C 698.898438 701.910156 699.6875 701.195312 700.441406 700.441406 C 701.195312 699.6875 701.910156 698.898438 702.585938 698.074219 C 703.261719 697.253906 703.898438 696.398438 704.492188 695.511719 C 705.085938 694.628906 705.632812 693.714844 706.136719 692.777344 C 706.640625 691.835938 707.097656 690.875 707.511719 689.890625 C 707.921875 688.910156 708.28125 687.90625 708.59375 686.890625 C 708.90625 685.871094 709.167969 684.839844 709.382812 683.792969 C 709.59375 682.75 709.753906 681.695312 709.863281 680.636719 C 709.972656 679.578125 710.03125 678.515625 710.035156 677.449219 L 710.035156 438.472656 C 710.03125 437.40625 709.972656 436.34375 709.863281 435.285156 C 709.753906 434.222656 709.59375 433.171875 709.382812 432.128906 C 709.167969 431.082031 708.90625 430.050781 708.59375 429.03125 C 708.28125 428.015625 707.921875 427.011719 707.507812 426.027344 C 707.097656 425.046875 706.640625 424.085938 706.136719 423.144531 C 705.632812 422.207031 705.085938 421.292969 704.492188 420.410156 C 703.898438 419.523438 703.261719 418.667969 702.585938 417.847656 C 701.910156 417.023438 701.195312 416.234375 700.441406 415.480469 C 699.6875 414.726562 698.898438 414.011719 698.074219 413.335938 C 697.253906 412.660156 696.398438 412.023438 695.511719 411.429688 C 694.628906 410.835938 693.714844 410.289062 692.777344 409.785156 C 691.835938 409.28125 690.875 408.824219 689.890625 408.410156 C 688.910156 408 687.90625 407.640625 686.890625 407.328125 C 685.871094 407.015625 684.839844 406.753906 683.792969 406.539062 C 682.75 406.328125 681.695312 406.167969 680.636719 406.058594 C 679.578125 405.949219 678.515625 405.890625 677.449219 405.886719 Z M 438.472656 427.609375 L 677.449219 427.609375 C 678.167969 427.59375 678.878906 427.648438 679.585938 427.777344 C 680.292969 427.902344 680.980469 428.101562 681.644531 428.367188 C 682.3125 428.632812 682.945312 428.964844 683.546875 429.359375 C 684.144531 429.757812 684.699219 430.207031 685.207031 430.714844 C 685.714844 431.222656 686.164062 431.777344 686.5625 432.375 C 686.957031 432.976562 687.289062 433.609375 687.554688 434.277344 C 687.820312 434.941406 688.019531 435.628906 688.144531 436.335938 C 688.273438 437.042969 688.328125 437.753906 688.3125 438.472656 L 688.3125 677.449219 C 688.328125 678.167969 688.273438 678.878906 688.144531 679.585938 C 688.019531 680.292969 687.820312 680.980469 687.554688 681.644531 C 687.289062 682.3125 686.957031 682.945312 686.5625 683.546875 C 686.164062 684.144531 685.714844 684.699219 685.207031 685.207031 C 684.699219 685.714844 684.144531 686.164062 683.546875 686.5625 C 682.945312 686.957031 682.3125 687.289062 681.644531 687.554688 C 680.980469 687.820312 680.292969 688.019531 679.585938 688.144531 C 678.878906 688.273438 678.167969 688.328125 677.449219 688.3125 L 438.472656 688.3125 C 437.753906 688.328125 437.042969 688.273438 436.335938 688.144531 C 435.628906 688.019531 434.941406 687.820312 434.277344 687.554688 C 433.609375 687.289062 432.976562 686.957031 432.375 686.5625 C 431.777344 686.167969 431.222656 685.714844 430.714844 685.207031 C 430.207031 684.699219 429.753906 684.144531 429.359375 683.546875 C 428.964844 682.945312 428.632812 682.3125 428.367188 681.644531 C 428.101562 680.980469 427.902344 680.292969 427.777344 679.585938 C 427.648438 678.878906 427.59375 678.167969 427.609375 677.449219 L 427.609375 438.472656 C 427.59375 437.753906 427.648438 437.042969 427.777344 436.335938 C 427.902344 435.628906 428.101562 434.941406 428.367188 434.277344 C 428.632812 433.609375 428.964844 432.976562 429.359375 432.375 C 429.753906 431.777344 430.207031 431.222656 430.714844 430.714844 C 431.222656 430.207031 431.777344 429.753906 432.375 429.359375 C 432.976562 428.964844 433.609375 428.632812 434.277344 428.367188 C 434.941406 428.101562 435.628906 427.902344 436.335938 427.777344 C 437.042969 427.648438 437.753906 427.59375 438.472656 427.609375 Z M 438.472656 427.609375 " fill-opacity="1" fill-rule="nonzero"/></g><g clip-path="url(#clip-2)"><path fill="rgb(0%, 0%, 0%)" d="M 264.671875 58.285156 C 263.609375 58.292969 262.542969 58.347656 261.484375 58.457031 C 260.425781 58.566406 259.371094 58.726562 258.328125 58.941406 C 257.28125 59.152344 256.25 59.414062 255.230469 59.726562 C 254.214844 60.039062 253.210938 60.402344 252.230469 60.8125 C 251.246094 61.222656 250.285156 61.679688 249.34375 62.183594 C 248.40625 62.6875 247.492188 63.234375 246.609375 63.828125 C 245.722656 64.421875 244.867188 65.058594 244.046875 65.734375 C 243.222656 66.410156 242.433594 67.125 241.679688 67.878906 C 240.925781 68.632812 240.210938 69.421875 239.535156 70.246094 C 238.859375 71.070312 238.222656 71.921875 237.628906 72.808594 C 237.035156 73.695312 236.488281 74.605469 235.984375 75.542969 C 235.480469 76.484375 235.023438 77.445312 234.609375 78.429688 C 234.199219 79.414062 233.839844 80.414062 233.527344 81.433594 C 233.214844 82.453125 232.953125 83.484375 232.738281 84.527344 C 232.527344 85.570312 232.367188 86.625 232.257812 87.683594 C 232.148438 88.746094 232.089844 89.808594 232.085938 90.875 L 232.085938 329.847656 C 232.089844 330.914062 232.148438 331.976562 232.257812 333.035156 C 232.367188 334.097656 232.527344 335.148438 232.738281 336.195312 C 232.953125 337.238281 233.214844 338.269531 233.527344 339.289062 C 233.839844 340.308594 234.203125 341.308594 234.613281 342.292969 C 235.023438 343.277344 235.480469 344.238281 235.984375 345.175781 C 236.488281 346.113281 237.035156 347.027344 237.628906 347.914062 C 238.222656 348.796875 238.859375 349.652344 239.535156 350.476562 C 240.210938 351.300781 240.925781 352.085938 241.679688 352.839844 C 242.433594 353.59375 243.222656 354.308594 244.046875 354.988281 C 244.867188 355.664062 245.722656 356.296875 246.609375 356.890625 C 247.496094 357.484375 248.40625 358.035156 249.34375 358.539062 C 250.285156 359.042969 251.246094 359.5 252.230469 359.910156 C 253.210938 360.320312 254.214844 360.683594 255.234375 360.996094 C 256.25 361.308594 257.28125 361.570312 258.328125 361.78125 C 259.371094 361.992188 260.425781 362.152344 261.484375 362.261719 C 262.542969 362.371094 263.609375 362.429688 264.671875 362.4375 L 503.648438 362.4375 C 504.714844 362.429688 505.777344 362.371094 506.835938 362.261719 C 507.898438 362.152344 508.949219 361.992188 509.992188 361.78125 C 511.039062 361.570312 512.070312 361.308594 513.089844 360.996094 C 514.109375 360.683594 515.109375 360.320312 516.09375 359.910156 C 517.074219 359.5 518.039062 359.042969 518.976562 358.539062 C 519.914062 358.035156 520.828125 357.484375 521.710938 356.890625 C 522.597656 356.296875 523.453125 355.664062 524.277344 354.988281 C 525.097656 354.308594 525.886719 353.59375 526.640625 352.839844 C 527.394531 352.085938 528.109375 351.300781 528.785156 350.476562 C 529.464844 349.652344 530.097656 348.796875 530.691406 347.914062 C 531.285156 347.027344 531.832031 346.113281 532.335938 345.175781 C 532.84375 344.238281 533.300781 343.277344 533.710938 342.292969 C 534.121094 341.308594 534.480469 340.308594 534.792969 339.289062 C 535.105469 338.269531 535.371094 337.238281 535.582031 336.195312 C 535.792969 335.148438 535.953125 334.097656 536.0625 333.035156 C 536.171875 331.976562 536.230469 330.914062 536.234375 329.847656 L 536.234375 90.875 C 536.230469 89.808594 536.171875 88.746094 536.0625 87.683594 C 535.953125 86.625 535.792969 85.570312 535.582031 84.527344 C 535.371094 83.484375 535.105469 82.453125 534.792969 81.433594 C 534.480469 80.414062 534.121094 79.414062 533.710938 78.429688 C 533.300781 77.445312 532.84375 76.484375 532.335938 75.546875 C 531.832031 74.605469 531.285156 73.695312 530.691406 72.808594 C 530.097656 71.921875 529.464844 71.070312 528.785156 70.246094 C 528.109375 69.421875 527.394531 68.632812 526.640625 67.878906 C 525.886719 67.125 525.097656 66.410156 524.277344 65.734375 C 523.453125 65.058594 522.597656 64.421875 521.710938 63.828125 C 520.828125 63.238281 519.914062 62.6875 518.976562 62.183594 C 518.039062 61.679688 517.074219 61.222656 516.09375 60.8125 C 515.109375 60.402344 514.109375 60.039062 513.089844 59.726562 C 512.070312 59.414062 511.039062 59.152344 509.992188 58.941406 C 508.949219 58.726562 507.898438 58.566406 506.835938 58.457031 C 505.777344 58.347656 504.714844 58.292969 503.648438 58.285156 Z M 264.671875 80.011719 L 503.648438 80.011719 C 504.367188 79.992188 505.078125 80.046875 505.785156 80.175781 C 506.492188 80.304688 507.179688 80.5 507.847656 80.765625 C 508.511719 81.035156 509.144531 81.363281 509.746094 81.761719 C 510.34375 82.15625 510.898438 82.605469 511.40625 83.113281 C 511.914062 83.621094 512.367188 84.175781 512.761719 84.777344 C 513.15625 85.375 513.488281 86.007812 513.753906 86.675781 C 514.023438 87.34375 514.21875 88.027344 514.347656 88.734375 C 514.472656 89.441406 514.527344 90.15625 514.511719 90.875 L 514.511719 329.847656 C 514.527344 330.566406 514.472656 331.277344 514.34375 331.984375 C 514.21875 332.691406 514.019531 333.378906 513.753906 334.046875 C 513.488281 334.710938 513.15625 335.34375 512.761719 335.945312 C 512.367188 336.542969 511.914062 337.097656 511.40625 337.605469 C 510.898438 338.113281 510.34375 338.566406 509.746094 338.960938 C 509.144531 339.355469 508.511719 339.6875 507.84375 339.953125 C 507.179688 340.222656 506.492188 340.417969 505.785156 340.546875 C 505.078125 340.671875 504.367188 340.726562 503.648438 340.710938 L 264.671875 340.710938 C 263.957031 340.726562 263.242188 340.671875 262.535156 340.546875 C 261.828125 340.417969 261.140625 340.222656 260.476562 339.953125 C 259.808594 339.6875 259.175781 339.355469 258.574219 338.960938 C 257.976562 338.566406 257.421875 338.113281 256.914062 337.605469 C 256.40625 337.097656 255.957031 336.546875 255.558594 335.945312 C 255.164062 335.347656 254.832031 334.710938 254.566406 334.046875 C 254.300781 333.378906 254.101562 332.691406 253.976562 331.984375 C 253.847656 331.277344 253.792969 330.566406 253.8125 329.847656 L 253.8125 90.875 C 253.792969 90.15625 253.847656 89.441406 253.976562 88.734375 C 254.101562 88.027344 254.300781 87.34375 254.566406 86.675781 C 254.832031 86.007812 255.164062 85.375 255.558594 84.777344 C 255.957031 84.175781 256.40625 83.621094 256.914062 83.113281 C 257.421875 82.605469 257.976562 82.15625 258.574219 81.761719 C 259.175781 81.363281 259.808594 81.035156 260.476562 80.765625 C 261.140625 80.5 261.828125 80.304688 262.535156 80.175781 C 263.242188 80.046875 263.957031 79.992188 264.671875 80.011719 Z M 264.671875 80.011719 " fill-opacity="1" fill-rule="nonzero"/></g><path fill="rgb(0%, 0%, 0%)" d="M 364.609375 135.296875 C 361.253906 135.964844 358.003906 136.960938 354.851562 138.28125 C 351.699219 139.605469 348.710938 141.226562 345.882812 143.152344 C 343.058594 145.078125 340.453125 147.265625 338.070312 149.714844 C 335.6875 152.164062 333.570312 154.828125 331.722656 157.703125 C 331.339844 158.304688 331.019531 158.9375 330.761719 159.605469 C 330.503906 160.269531 330.316406 160.953125 330.191406 161.65625 C 330.070312 162.355469 330.015625 163.0625 330.03125 163.777344 C 330.046875 164.488281 330.132812 165.195312 330.289062 165.890625 C 330.441406 166.585938 330.664062 167.261719 330.953125 167.914062 C 331.238281 168.566406 331.589844 169.183594 331.996094 169.765625 C 332.40625 170.351562 332.867188 170.890625 333.382812 171.382812 C 333.898438 171.875 334.457031 172.3125 335.058594 172.695312 C 335.660156 173.078125 336.292969 173.398438 336.957031 173.65625 C 337.625 173.914062 338.308594 174.105469 339.007812 174.230469 C 339.710938 174.355469 340.417969 174.410156 341.132812 174.394531 C 341.84375 174.378906 342.550781 174.292969 343.246094 174.136719 C 343.941406 173.984375 344.617188 173.761719 345.269531 173.476562 C 345.921875 173.1875 346.539062 172.839844 347.125 172.433594 C 347.707031 172.023438 348.246094 171.5625 348.738281 171.046875 C 349.234375 170.53125 349.671875 169.972656 350.054688 169.371094 C 350.640625 168.632812 351.257812 167.921875 351.90625 167.234375 C 352.554688 166.550781 353.230469 165.890625 353.933594 165.261719 C 354.636719 164.632812 355.363281 164.035156 356.117188 163.46875 C 356.867188 162.898438 357.644531 162.363281 358.441406 161.859375 C 359.238281 161.355469 360.058594 160.886719 360.894531 160.453125 C 361.730469 160.019531 362.585938 159.621094 363.457031 159.257812 C 364.328125 158.898438 365.210938 158.570312 366.109375 158.28125 C 367.007812 157.996094 367.917969 157.746094 368.835938 157.53125 C 369.757812 157.320312 370.683594 157.148438 371.617188 157.015625 C 372.550781 156.878906 373.488281 156.785156 374.429688 156.730469 C 375.371094 156.675781 376.3125 156.660156 377.257812 156.683594 C 378.199219 156.707031 379.140625 156.773438 380.078125 156.875 C 381.015625 156.976562 381.945312 157.121094 382.871094 157.300781 C 383.796875 157.484375 384.714844 157.703125 385.621094 157.960938 C 386.527344 158.21875 387.421875 158.515625 388.304688 158.847656 C 389.1875 159.183594 390.054688 159.550781 390.90625 159.957031 C 392.277344 161.019531 393.53125 162.207031 394.664062 163.515625 C 395.800781 164.828125 396.796875 166.234375 397.652344 167.742188 C 398.507812 169.25 399.207031 170.828125 399.75 172.472656 C 400.292969 174.121094 400.667969 175.804688 400.878906 177.527344 C 401.679688 181.835938 402.003906 186.179688 401.855469 190.558594 C 401.707031 194.941406 401.082031 199.25 399.988281 203.496094 C 395.925781 211.605469 390.972656 219.125 385.128906 226.0625 C 379.285156 232.996094 372.710938 239.148438 365.40625 244.527344 C 355.699219 252.441406 345.5625 259.753906 334.992188 266.46875 C 334.492188 266.777344 334.019531 267.125 333.578125 267.507812 C 333.132812 267.894531 332.726562 268.3125 332.351562 268.765625 C 331.976562 269.214844 331.640625 269.695312 331.339844 270.199219 C 331.042969 270.707031 330.789062 271.234375 330.578125 271.78125 C 330.363281 272.328125 330.199219 272.886719 330.078125 273.460938 C 329.957031 274.035156 329.882812 274.617188 329.855469 275.203125 C 329.828125 275.789062 329.847656 276.375 329.914062 276.957031 C 329.984375 277.539062 330.097656 278.113281 330.257812 278.679688 C 330.417969 279.242188 330.625 279.789062 330.875 280.320312 C 331.121094 280.855469 331.414062 281.359375 331.746094 281.84375 C 332.078125 282.328125 332.445312 282.785156 332.851562 283.207031 C 333.257812 283.632812 333.695312 284.023438 334.160156 284.375 C 334.628906 284.730469 335.125 285.042969 335.644531 285.316406 C 336.164062 285.589844 336.699219 285.820312 337.257812 286.007812 C 337.8125 286.191406 338.382812 286.332031 338.960938 286.425781 C 339.539062 286.519531 340.125 286.566406 340.710938 286.566406 L 427.441406 286.566406 C 428.15625 286.578125 428.863281 286.519531 429.566406 286.390625 C 430.265625 286.261719 430.949219 286.066406 431.613281 285.804688 C 432.277344 285.539062 432.910156 285.214844 433.507812 284.828125 C 434.109375 284.4375 434.664062 283.996094 435.175781 283.5 C 435.6875 283.003906 436.148438 282.460938 436.550781 281.871094 C 436.957031 281.285156 437.300781 280.664062 437.582031 280.007812 C 437.867188 279.351562 438.082031 278.675781 438.230469 277.976562 C 438.378906 277.277344 438.460938 276.574219 438.46875 275.859375 C 438.480469 275.144531 438.421875 274.4375 438.292969 273.734375 C 438.160156 273.03125 437.964844 272.351562 437.699219 271.6875 C 437.4375 271.023438 437.109375 270.390625 436.722656 269.792969 C 436.332031 269.195312 435.890625 268.640625 435.390625 268.128906 C 434.894531 267.617188 434.351562 267.160156 433.761719 266.753906 C 433.175781 266.347656 432.554688 266.007812 431.898438 265.722656 C 431.242188 265.441406 430.5625 265.226562 429.867188 265.078125 C 429.167969 264.929688 428.460938 264.851562 427.746094 264.84375 L 374.273438 264.84375 C 376.703125 262.972656 376.625 263.386719 379.152344 261.320312 C 383.808594 258.128906 388.207031 254.613281 392.347656 250.773438 C 396.488281 246.933594 400.328125 242.8125 403.863281 238.410156 C 407.398438 234.007812 410.597656 229.371094 413.453125 224.5 C 416.308594 219.628906 418.792969 214.578125 420.90625 209.34375 C 422.507812 203.460938 423.417969 197.476562 423.632812 191.382812 C 423.851562 185.292969 423.367188 179.257812 422.1875 173.277344 C 421.71875 170.082031 420.925781 166.96875 419.8125 163.9375 C 418.699219 160.90625 417.285156 158.019531 415.570312 155.28125 C 413.859375 152.542969 411.882812 150.007812 409.644531 147.679688 C 407.410156 145.351562 404.957031 143.273438 402.289062 141.453125 C 399.480469 139.78125 396.542969 138.386719 393.472656 137.269531 C 390.402344 136.152344 387.257812 135.328125 384.03125 134.804688 C 380.808594 134.277344 377.5625 134.054688 374.296875 134.136719 C 371.03125 134.222656 367.800781 134.609375 364.609375 135.296875 Z M 364.609375 135.296875 " fill-opacity="1" fill-rule="nonzero"/><path fill="rgb(0%, 0%, 0%)" d="M 520.113281 476.492188 C 519.398438 476.480469 518.691406 476.542969 517.988281 476.671875 C 517.289062 476.800781 516.605469 476.996094 515.941406 477.261719 C 515.28125 477.523438 514.648438 477.851562 514.050781 478.238281 C 513.453125 478.625 512.898438 479.066406 512.386719 479.566406 C 511.875 480.0625 511.417969 480.605469 511.011719 481.191406 C 510.605469 481.78125 510.261719 482.402344 509.980469 483.054688 C 509.699219 483.710938 509.484375 484.386719 509.335938 485.085938 C 509.183594 485.78125 509.105469 486.488281 509.097656 487.203125 C 509.085938 487.914062 509.144531 488.621094 509.273438 489.324219 C 509.402344 490.023438 509.601562 490.707031 509.863281 491.371094 C 510.128906 492.03125 510.453125 492.664062 510.839844 493.261719 C 511.230469 493.859375 511.671875 494.414062 512.167969 494.925781 C 512.667969 495.4375 513.207031 495.898438 513.796875 496.300781 C 514.382812 496.707031 515.003906 497.050781 515.660156 497.332031 C 516.316406 497.613281 516.992188 497.828125 517.6875 497.976562 C 518.386719 498.128906 519.09375 498.207031 519.804688 498.21875 L 573.152344 498.21875 L 538.609375 540.648438 C 537.914062 541.496094 537.363281 542.429688 536.953125 543.445312 C 536.542969 544.460938 536.292969 545.515625 536.199219 546.605469 C 536.109375 547.699219 536.179688 548.78125 536.417969 549.851562 C 536.652344 550.921875 537.042969 551.933594 537.582031 552.882812 C 538.125 553.835938 538.796875 554.6875 539.59375 555.4375 C 540.394531 556.1875 541.285156 556.800781 542.269531 557.28125 C 543.257812 557.761719 544.289062 558.082031 545.375 558.25 C 546.457031 558.417969 547.539062 558.417969 548.625 558.257812 C 549.210938 558.171875 549.796875 558.101562 550.386719 558.050781 C 550.976562 558 551.570312 557.972656 552.160156 557.960938 C 552.753906 557.949219 553.34375 557.957031 553.9375 557.984375 C 554.527344 558.011719 555.117188 558.058594 555.707031 558.125 C 556.296875 558.191406 556.882812 558.277344 557.464844 558.382812 C 558.046875 558.484375 558.628906 558.609375 559.203125 558.75 C 559.777344 558.894531 560.347656 559.054688 560.910156 559.234375 C 561.476562 559.414062 562.035156 559.613281 562.585938 559.828125 C 563.136719 560.042969 563.679688 560.277344 564.21875 560.53125 C 564.753906 560.78125 565.28125 561.050781 565.800781 561.335938 C 566.316406 561.625 566.828125 561.925781 567.324219 562.246094 C 567.824219 562.566406 568.3125 562.902344 568.789062 563.253906 C 569.265625 563.605469 569.730469 563.972656 570.183594 564.351562 C 570.636719 564.734375 571.074219 565.132812 571.503906 565.542969 C 571.929688 565.953125 572.34375 566.378906 572.742188 566.816406 C 573.140625 567.253906 573.523438 567.703125 573.894531 568.164062 C 574.265625 568.628906 574.617188 569.101562 574.957031 569.589844 C 575.296875 570.074219 575.617188 570.570312 575.921875 571.078125 C 576.230469 571.585938 576.519531 572.101562 576.789062 572.628906 C 577.0625 573.15625 577.316406 573.691406 577.554688 574.230469 C 577.792969 574.773438 578.011719 575.324219 578.214844 575.882812 C 578.414062 576.4375 578.597656 577.003906 578.761719 577.570312 C 578.925781 578.140625 579.070312 578.714844 579.199219 579.292969 C 579.324219 579.871094 579.433594 580.453125 579.523438 581.039062 C 579.609375 581.625 579.679688 582.210938 579.730469 582.804688 C 579.78125 583.394531 579.8125 583.984375 579.824219 584.578125 C 579.835938 585.167969 579.828125 585.761719 579.800781 586.351562 C 579.773438 586.945312 579.726562 587.535156 579.660156 588.125 C 579.597656 588.710938 579.511719 589.296875 579.40625 589.882812 C 579.304688 590.464844 579.179688 591.042969 579.039062 591.617188 C 578.894531 592.195312 578.734375 592.761719 578.554688 593.328125 C 578.378906 593.894531 578.179688 594.449219 577.964844 595.003906 C 577.75 595.554688 577.515625 596.097656 577.261719 596.632812 C 577.011719 597.171875 576.742188 597.699219 576.457031 598.21875 C 576.171875 598.734375 575.867188 599.246094 575.550781 599.742188 C 575.230469 600.242188 574.894531 600.730469 574.542969 601.207031 C 574.191406 601.683594 573.828125 602.148438 573.445312 602.601562 C 573.0625 603.054688 572.667969 603.496094 572.257812 603.925781 C 571.847656 604.351562 571.421875 604.765625 570.984375 605.164062 C 570.546875 605.5625 570.097656 605.949219 569.636719 606.316406 C 569.171875 606.6875 568.699219 607.042969 568.214844 607.382812 C 567.726562 607.71875 567.230469 608.042969 566.722656 608.351562 C 566.21875 608.65625 565.699219 608.945312 565.175781 609.21875 C 564.648438 609.492188 564.113281 609.746094 563.574219 609.984375 C 563.03125 610.222656 562.480469 610.441406 561.921875 610.644531 C 561.367188 610.84375 560.804688 611.027344 560.234375 611.195312 C 559.664062 611.359375 559.089844 611.503906 558.511719 611.632812 C 557.933594 611.757812 557.351562 611.867188 556.765625 611.957031 C 556.179688 612.046875 555.59375 612.117188 555.003906 612.167969 C 554.414062 612.21875 553.820312 612.25 553.230469 612.261719 C 552.636719 612.273438 552.046875 612.265625 551.453125 612.238281 C 550.863281 612.214844 550.273438 612.167969 549.683594 612.101562 C 549.09375 612.035156 548.507812 611.953125 547.925781 611.847656 C 547.34375 611.746094 546.761719 611.621094 546.1875 611.480469 C 545.613281 611.339844 545.042969 611.179688 544.476562 611 C 543.914062 610.820312 543.355469 610.625 542.800781 610.410156 C 542.25 610.195312 541.707031 609.960938 541.167969 609.710938 C 540.632812 609.460938 540.105469 609.191406 539.585938 608.90625 C 539.066406 608.621094 538.558594 608.316406 538.058594 608 C 537.558594 607.679688 537.070312 607.347656 536.59375 606.996094 C 536.117188 606.644531 535.652344 606.277344 535.199219 605.898438 C 534.746094 605.515625 534.304688 605.121094 533.875 604.710938 C 533.449219 604.300781 533.035156 603.875 532.636719 603.441406 C 532.234375 603.003906 531.851562 602.554688 531.480469 602.089844 C 531.039062 601.527344 530.550781 601.015625 530.007812 600.550781 C 529.46875 600.082031 528.886719 599.675781 528.265625 599.324219 C 527.644531 598.972656 526.996094 598.683594 526.316406 598.460938 C 525.636719 598.238281 524.945312 598.082031 524.238281 597.996094 C 523.527344 597.910156 522.816406 597.894531 522.105469 597.945312 C 521.394531 598 520.695312 598.121094 520.007812 598.3125 C 519.320312 598.503906 518.65625 598.761719 518.019531 599.082031 C 517.382812 599.402344 516.78125 599.785156 516.21875 600.226562 C 515.660156 600.664062 515.144531 601.15625 514.679688 601.695312 C 514.214844 602.238281 513.804688 602.816406 513.453125 603.4375 C 513.101562 604.0625 512.816406 604.710938 512.589844 605.386719 C 512.367188 606.066406 512.214844 606.757812 512.128906 607.46875 C 512.039062 608.175781 512.023438 608.886719 512.078125 609.597656 C 512.128906 610.308594 512.253906 611.011719 512.445312 611.699219 C 512.632812 612.386719 512.890625 613.046875 513.210938 613.683594 C 513.535156 614.324219 513.914062 614.921875 514.355469 615.484375 L 514.464844 615.625 C 515.351562 616.734375 516.285156 617.804688 517.265625 618.835938 C 518.246094 619.863281 519.269531 620.847656 520.335938 621.789062 C 521.402344 622.726562 522.507812 623.617188 523.652344 624.460938 C 524.796875 625.304688 525.972656 626.097656 527.1875 626.835938 C 528.398438 627.578125 529.644531 628.261719 530.917969 628.894531 C 532.1875 629.527344 533.488281 630.101562 534.8125 630.617188 C 536.132812 631.136719 537.476562 631.597656 538.839844 632 C 540.203125 632.398438 541.582031 632.738281 542.976562 633.019531 C 544.367188 633.300781 545.769531 633.519531 547.183594 633.679688 C 548.597656 633.835938 550.011719 633.933594 551.433594 633.96875 C 552.855469 634.003906 554.273438 633.976562 555.691406 633.886719 C 557.109375 633.796875 558.523438 633.644531 559.925781 633.433594 C 561.332031 633.21875 562.726562 632.945312 564.105469 632.613281 C 565.488281 632.277344 566.851562 631.882812 568.199219 631.429688 C 569.546875 630.976562 570.871094 630.464844 572.171875 629.898438 C 573.472656 629.328125 574.75 628.703125 575.996094 628.023438 C 577.246094 627.34375 578.460938 626.609375 579.644531 625.824219 C 580.828125 625.035156 581.976562 624.199219 583.085938 623.3125 C 584.195312 622.425781 585.265625 621.492188 586.296875 620.511719 C 587.324219 619.535156 588.308594 618.511719 589.25 617.445312 C 590.1875 616.378906 591.082031 615.273438 591.921875 614.128906 C 592.765625 612.984375 593.558594 611.808594 594.300781 610.59375 C 595.039062 609.382812 595.726562 608.136719 596.359375 606.867188 C 596.988281 605.59375 597.566406 604.292969 598.085938 602.972656 C 598.601562 601.648438 599.0625 600.304688 599.464844 598.941406 C 599.867188 597.578125 600.207031 596.199219 600.488281 594.808594 C 600.769531 593.414062 600.988281 592.011719 601.148438 590.597656 C 601.304688 589.1875 601.402344 587.769531 601.4375 586.351562 C 601.472656 584.929688 601.445312 583.507812 601.355469 582.089844 C 601.265625 580.671875 601.117188 579.261719 600.902344 577.855469 C 600.691406 576.449219 600.417969 575.058594 600.085938 573.675781 C 599.75 572.292969 599.355469 570.929688 598.902344 569.582031 C 598.226562 567.828125 597.449219 566.121094 596.566406 564.460938 C 595.683594 562.800781 594.703125 561.199219 593.625 559.660156 C 592.546875 558.117188 591.378906 556.648438 590.125 555.246094 C 588.867188 553.847656 587.53125 552.527344 586.117188 551.292969 C 584.699219 550.054688 583.214844 548.90625 581.660156 547.847656 C 580.101562 546.792969 578.488281 545.832031 576.816406 544.972656 C 575.144531 544.109375 573.429688 543.351562 571.664062 542.699219 C 569.902344 542.046875 568.105469 541.503906 566.273438 541.070312 L 604.417969 494.183594 C 605.0625 493.386719 605.585938 492.515625 605.984375 491.570312 C 606.378906 490.625 606.640625 489.644531 606.757812 488.625 C 606.878906 487.609375 606.855469 486.59375 606.6875 485.582031 C 606.519531 484.570312 606.21875 483.601562 605.777344 482.675781 C 605.335938 481.753906 604.773438 480.90625 604.09375 480.140625 C 603.410156 479.375 602.636719 478.71875 601.769531 478.167969 C 600.902344 477.621094 599.976562 477.207031 598.992188 476.921875 C 598.007812 476.636719 597.003906 476.492188 595.980469 476.492188 Z M 520.113281 476.492188 " fill-opacity="1" fill-rule="nonzero"/></svg>