<svg xmlns="http://www.w3.org/2000/svg" width="768" viewBox="0 0 768 768" height="768" version="1.0"><path fill="#010101" d="M 326.351562 581.296875 L 311.90625 576.140625 C 312.9375 565.824219 312.421875 554.992188 310.875 544.679688 L 324.804688 538.488281 C 333.574219 534.363281 337.183594 524.050781 333.058594 515.796875 L 324.804688 498.261719 C 320.675781 489.496094 310.359375 485.882812 302.101562 490.011719 L 288.171875 496.199219 C 281.464844 487.949219 273.726562 480.726562 264.957031 474.539062 L 270.117188 460.097656 C 273.210938 451.332031 268.570312 441.015625 259.796875 437.921875 L 241.742188 431.214844 C 232.972656 428.121094 222.652344 432.761719 219.558594 441.53125 L 214.398438 455.972656 C 204.082031 454.941406 193.246094 455.457031 182.929688 457.003906 L 176.222656 442.5625 C 172.09375 433.796875 161.777344 430.183594 153.519531 434.3125 L 135.980469 442.5625 C 127.210938 446.6875 123.597656 457.003906 127.726562 465.253906 L 133.917969 479.179688 C 125.660156 485.882812 118.4375 493.621094 112.25 502.386719 L 97.800781 497.230469 C 89.03125 494.136719 78.714844 498.777344 75.617188 507.546875 L 68.910156 525.597656 C 67.363281 529.722656 67.363281 534.363281 69.425781 539.007812 C 71.492188 543.132812 74.585938 546.226562 79.230469 547.773438 L 93.675781 552.929688 C 92.644531 563.246094 93.160156 574.074219 94.707031 584.390625 L 80.777344 590.578125 C 72.007812 594.707031 68.394531 605.019531 72.523438 613.273438 L 80.777344 630.808594 C 84.90625 639.574219 95.222656 643.183594 103.476562 639.058594 L 117.40625 632.871094 C 124.113281 641.121094 131.851562 648.34375 140.625 654.53125 L 135.464844 668.972656 C 133.917969 673.097656 133.917969 677.738281 135.980469 682.382812 C 138.042969 686.507812 141.140625 689.601562 145.78125 691.148438 L 163.839844 697.855469 C 167.964844 699.402344 172.609375 699.402344 177.253906 697.339844 C 181.378906 695.273438 184.476562 692.179688 186.023438 687.539062 L 191.183594 673.097656 C 201.5 674.128906 212.335938 673.613281 222.652344 672.066406 L 228.84375 685.992188 C 232.972656 694.757812 243.289062 698.371094 251.542969 694.242188 L 269.085938 685.992188 C 277.855469 681.867188 281.464844 671.550781 277.339844 663.300781 L 271.148438 649.375 C 279.402344 642.667969 286.625 634.933594 292.816406 626.164062 L 307.261719 631.324219 C 311.390625 632.871094 316.546875 632.871094 320.675781 630.808594 C 324.804688 628.746094 327.898438 625.648438 329.445312 621.007812 L 336.152344 602.957031 C 339.765625 594.707031 335.121094 584.90625 326.351562 581.296875 Z M 231.421875 626.683594 C 222.136719 630.808594 212.851562 632.871094 203.046875 632.871094 C 176.222656 632.871094 151.972656 617.398438 141.140625 593.160156 C 125.144531 559.121094 140.625 518.375 174.671875 502.386719 C 183.960938 498.261719 193.246094 496.199219 203.046875 496.199219 C 229.875 496.199219 254.125 511.671875 264.957031 535.910156 C 280.433594 570.464844 265.472656 610.695312 231.421875 626.683594 Z M 231.421875 626.683594"/><path fill="#010101" d="M 678.203125 327.035156 L 653.953125 318.269531 C 656.019531 300.734375 654.984375 282.683594 651.890625 265.148438 L 675.105469 254.316406 C 689.550781 247.613281 696.257812 230.59375 689.550781 215.636719 L 676.136719 186.238281 C 669.429688 171.800781 652.40625 165.09375 637.445312 171.800781 L 614.230469 182.628906 C 602.878906 168.703125 589.464844 156.328125 575.019531 146.527344 L 583.789062 122.289062 C 589.464844 107.332031 581.726562 90.3125 566.765625 85.15625 L 536.328125 73.808594 C 521.882812 68.652344 504.339844 76.386719 499.179688 90.828125 L 490.410156 115.066406 C 472.871094 113.003906 454.8125 114.035156 437.273438 117.128906 L 426.4375 93.921875 C 419.730469 79.480469 402.707031 72.777344 387.746094 79.480469 L 358.335938 92.890625 C 343.890625 99.59375 337.183594 116.613281 343.890625 131.570312 L 354.726562 154.78125 C 340.796875 166.125 328.414062 179.535156 318.613281 193.976562 L 294.363281 185.207031 C 279.917969 180.050781 262.378906 187.785156 257.21875 202.226562 L 245.867188 232.65625 C 243.289062 239.875 243.289062 247.613281 246.902344 254.832031 C 249.996094 262.054688 256.1875 267.210938 263.410156 269.789062 L 287.65625 278.558594 C 285.59375 296.09375 286.109375 314.144531 289.722656 331.679688 L 266.503906 342.507812 C 252.058594 349.214844 245.351562 366.234375 252.058594 381.191406 L 265.472656 410.585938 C 272.179688 425.027344 289.207031 431.730469 304.167969 425.027344 L 327.382812 414.195312 C 338.734375 428.121094 352.148438 440.5 366.59375 450.296875 L 357.820312 474.539062 C 355.242188 481.757812 355.242188 489.496094 358.851562 496.714844 C 361.949219 503.9375 368.140625 509.09375 375.363281 511.671875 L 405.800781 523.019531 C 413.023438 525.597656 420.761719 525.597656 427.984375 521.988281 C 435.207031 518.890625 440.367188 512.703125 442.945312 505.484375 L 451.71875 481.242188 C 469.257812 483.304688 487.316406 482.789062 504.855469 479.179688 L 515.691406 502.386719 C 522.398438 516.828125 539.421875 523.535156 554.382812 516.828125 L 583.789062 503.421875 C 598.234375 496.714844 604.941406 479.695312 598.234375 464.738281 L 587.402344 441.53125 C 601.332031 430.183594 613.714844 416.777344 623.515625 402.335938 L 647.761719 411.101562 C 654.984375 413.679688 662.726562 413.679688 669.949219 410.070312 C 677.171875 406.976562 682.328125 400.789062 684.910156 393.566406 L 696.257812 363.136719 C 700.902344 349.214844 693.164062 332.710938 678.203125 327.035156 Z M 518.785156 402.851562 C 503.824219 410.070312 487.316406 413.164062 470.804688 413.164062 C 425.921875 413.164062 385.164062 386.863281 366.59375 346.636719 C 339.765625 289.386719 365.042969 220.792969 422.308594 194.492188 C 437.273438 187.269531 453.78125 184.175781 470.289062 184.175781 C 515.175781 184.175781 555.929688 210.480469 574.503906 250.707031 C 601.332031 307.953125 576.050781 376.546875 518.785156 402.851562 Z M 518.785156 402.851562"/></svg>