<svg xmlns="http://www.w3.org/2000/svg" width="768" viewBox="0 0 768 768" height="768" version="1.0"><defs><clipPath id="a"><path d="M 65.757812 65.757812 L 702.507812 65.757812 L 702.507812 702.507812 L 65.757812 702.507812 Z M 65.757812 65.757812"/></clipPath></defs><g clip-path="url(#a)"><path d="M 111.238281 65.757812 C 86.292969 65.757812 65.757812 86.292969 65.757812 111.238281 L 65.757812 657.027344 C 65.757812 681.972656 86.292969 702.507812 111.238281 702.507812 L 657.027344 702.507812 C 681.972656 702.507812 702.507812 681.972656 702.507812 657.027344 L 702.507812 205.226562 C 702.507812 203.214844 702.121094 201.28125 701.351562 199.421875 C 700.582031 197.566406 699.488281 195.925781 698.066406 194.503906 L 573.761719 70.199219 C 572.339844 68.777344 570.699219 67.683594 568.839844 66.914062 C 566.984375 66.144531 565.050781 65.757812 563.042969 65.757812 Z M 111.238281 96.078125 L 187.042969 96.078125 L 187.042969 278.007812 C 187.042969 302.953125 207.578125 323.488281 232.527344 323.488281 L 520.578125 323.488281 C 545.527344 323.488281 566.0625 302.953125 566.0625 278.007812 L 566.0625 105.378906 L 672.1875 211.503906 L 672.1875 657.027344 C 672.1875 665.433594 665.433594 672.1875 657.027344 672.1875 L 581.222656 672.1875 L 581.222656 444.777344 C 581.222656 419.828125 560.6875 399.292969 535.738281 399.292969 L 232.527344 399.292969 C 207.578125 399.292969 187.042969 419.828125 187.042969 444.777344 L 187.042969 672.1875 L 111.238281 672.1875 C 102.832031 672.1875 96.078125 665.433594 96.078125 657.027344 L 96.078125 111.238281 C 96.078125 102.832031 102.832031 96.078125 111.238281 96.078125 Z M 217.363281 96.078125 L 535.738281 96.078125 L 535.738281 278.007812 C 535.738281 286.414062 528.988281 293.167969 520.578125 293.167969 L 232.527344 293.167969 C 224.117188 293.167969 217.363281 286.414062 217.363281 278.007812 Z M 444.777344 126.402344 C 443.78125 126.402344 442.792969 126.5 441.816406 126.691406 C 440.839844 126.886719 439.894531 127.175781 438.972656 127.554688 C 438.054688 127.9375 437.179688 128.402344 436.351562 128.957031 C 435.523438 129.511719 434.757812 130.136719 434.054688 130.84375 C 433.351562 131.546875 432.722656 132.3125 432.171875 133.140625 C 431.617188 133.96875 431.148438 134.839844 430.769531 135.761719 C 430.386719 136.679688 430.101562 137.628906 429.90625 138.605469 C 429.710938 139.582031 429.613281 140.566406 429.613281 141.5625 L 429.613281 247.6875 C 429.617188 248.683594 429.710938 249.667969 429.90625 250.644531 C 430.101562 251.621094 430.390625 252.570312 430.769531 253.488281 C 431.152344 254.40625 431.617188 255.28125 432.171875 256.109375 C 432.722656 256.9375 433.351562 257.703125 434.054688 258.40625 C 434.761719 259.109375 435.527344 259.738281 436.355469 260.292969 C 437.179688 260.84375 438.054688 261.3125 438.976562 261.691406 C 439.894531 262.074219 440.84375 262.363281 441.820312 262.554688 C 442.792969 262.75 443.78125 262.847656 444.777344 262.847656 L 490.257812 262.847656 C 491.253906 262.847656 492.238281 262.75 493.214844 262.554688 C 494.191406 262.359375 495.140625 262.074219 496.058594 261.691406 C 496.980469 261.3125 497.851562 260.84375 498.679688 260.292969 C 499.507812 259.738281 500.273438 259.109375 500.976562 258.40625 C 501.683594 257.703125 502.3125 256.9375 502.863281 256.109375 C 503.417969 255.28125 503.882812 254.40625 504.265625 253.488281 C 504.644531 252.566406 504.933594 251.621094 505.128906 250.644531 C 505.320312 249.667969 505.417969 248.683594 505.417969 247.6875 L 505.417969 141.5625 C 505.417969 140.566406 505.320312 139.578125 505.125 138.605469 C 504.933594 137.628906 504.644531 136.679688 504.265625 135.757812 C 503.882812 134.839844 503.414062 133.964844 502.863281 133.136719 C 502.308594 132.3125 501.679688 131.546875 500.976562 130.839844 C 500.273438 130.136719 499.507812 129.507812 498.679688 128.957031 C 497.851562 128.402344 496.980469 127.9375 496.058594 127.554688 C 495.140625 127.175781 494.191406 126.886719 493.214844 126.691406 C 492.238281 126.496094 491.253906 126.402344 490.257812 126.402344 Z M 459.9375 156.722656 L 475.097656 156.722656 L 475.097656 232.527344 L 459.9375 232.527344 Z M 232.527344 429.613281 L 535.738281 429.613281 C 544.148438 429.613281 550.902344 436.367188 550.902344 444.777344 L 550.902344 672.1875 L 217.363281 672.1875 L 217.363281 444.777344 C 217.363281 436.367188 224.117188 429.613281 232.527344 429.613281 Z M 126.402344 611.542969 L 126.402344 641.863281 L 156.722656 641.863281 L 156.722656 611.542969 Z M 611.542969 611.542969 L 611.542969 641.863281 L 641.863281 641.863281 L 641.863281 611.542969 Z M 611.542969 611.542969"/></g></svg>