<svg xmlns="http://www.w3.org/2000/svg" width="768" viewBox="0 0 768 768" height="768" version="1.0"><defs><clipPath id="a"><path d="M 120.199219 72.726562 L 647.859375 72.726562 L 647.859375 695.226562 L 120.199219 695.226562 Z M 120.199219 72.726562"/></clipPath></defs><path d="M 474.726562 298.050781 C 466.023438 298.050781 459.332031 304.082031 459.332031 312.101562 L 459.332031 588.226562 C 459.332031 596.273438 466.023438 602.28125 474.726562 602.28125 C 483.40625 602.28125 490.097656 596.273438 490.097656 588.226562 L 490.097656 312.753906 C 489.441406 304.738281 482.75 298.050781 474.726562 298.050781"/><path d="M 294.71875 298.050781 C 286.015625 298.050781 279.324219 304.082031 279.324219 312.101562 L 279.324219 588.226562 C 279.324219 596.273438 286.015625 602.28125 294.71875 602.28125 C 303.421875 602.28125 310.113281 596.273438 310.113281 588.226562 L 310.113281 312.753906 C 310.113281 304.738281 302.742188 298.050781 294.71875 298.050781"/><g clip-path="url(#a)"><path d="M 178.304688 177.695312 L 590.464844 177.695312 C 605.859375 177.695312 617.90625 189.738281 617.90625 203.789062 C 617.90625 217.8125 605.859375 229.855469 590.464844 229.855469 L 178.304688 229.855469 C 162.910156 229.855469 150.859375 217.8125 150.859375 203.789062 C 150.859375 189.738281 162.910156 177.695312 178.304688 177.695312 Z M 286.695312 130.238281 C 286.695312 122.195312 290.039062 115.507812 295.398438 109.5 C 301.410156 104.144531 308.78125 101.480469 316.804688 101.480469 L 451.960938 101.480469 C 459.984375 101.480469 467.355469 104.824219 473.367188 109.5 C 479.40625 114.855469 482.070312 122.195312 482.070312 130.238281 L 482.070312 148.285156 L 287.375 148.285156 Z M 528.910156 665.800781 L 239.855469 665.800781 C 213.773438 665.800781 193.019531 644.410156 193.019531 617.011719 L 193.019531 259.265625 L 574.414062 259.265625 L 574.414062 617.664062 C 575.09375 645.089844 555.019531 665.800781 528.910156 665.800781 Z M 163.589844 257.933594 L 163.589844 617.011719 C 163.589844 638.402344 171.613281 657.78125 185.648438 672.488281 C 199.710938 686.539062 219.785156 695.234375 239.855469 695.234375 L 528.257812 695.234375 C 548.984375 695.234375 568.402344 687.191406 582.4375 672.488281 C 596.5 658.460938 604.523438 638.402344 604.523438 617.011719 L 604.523438 257.933594 C 632.621094 250.59375 651.363281 225.179688 647.339844 197.101562 C 643.339844 169 618.585938 148.285156 589.808594 148.285156 L 512.183594 148.285156 L 512.183594 130.238281 C 512.183594 114.855469 506.171875 100.148438 494.800781 89.441406 C 483.40625 78.078125 468.035156 72.726562 451.960938 72.726562 L 316.804688 72.726562 C 300.757812 72.726562 285.363281 78.078125 273.992188 89.441406 C 262.597656 100.148438 256.585938 114.855469 256.585938 130.238281 L 256.585938 148.285156 L 178.304688 148.285156 C 149.527344 148.285156 124.09375 169 120.75 197.101562 C 116.75 224.5 134.8125 250.59375 163.589844 257.933594"/></g><path d="M 384.398438 298.050781 C 375.691406 298.050781 369 304.082031 369 312.101562 L 369 588.226562 C 369 596.273438 375.691406 602.28125 384.398438 602.28125 C 393.074219 602.28125 399.765625 596.273438 399.765625 588.226562 L 399.765625 312.753906 C 399.765625 304.738281 393.074219 298.050781 384.398438 298.050781"/></svg>